<?xml version="1.0" encoding="utf-8"?>
<!-- Generator: Adobe Illustrator 21.0.0, SVG Export Plug-In . SVG Version: 6.00 Build 0)  -->
<svg version="1.1" id="Layer_1" xmlns="http://www.w3.org/2000/svg" xmlns:xlink="http://www.w3.org/1999/xlink" x="0px" y="0px"
	 viewBox="0 0 841.9 595.3" style="enable-background:new 0 0 841.9 595.3;" xml:space="preserve">
<style type="text/css">
	.st0{clip-path:url(#SVGID_2_);}
	.st1{fill:none;stroke:#000000;stroke-width:1.037;}
	.st2{clip-path:url(#SVGID_4_);}
	.st3{fill:#D42E27;}
</style>
<g>
	<defs>
		<rect id="SVGID_1_" x="113" y="159.9" width="615.7" height="276.3"/>
	</defs>
	<clipPath id="SVGID_2_">
		<use xlink:href="#SVGID_1_"  style="overflow:visible;"/>
	</clipPath>
	<path class="st0" d="M716.5,428.1c-0.8,0-1.5-0.2-2.1-0.7s-0.8-1.1-0.8-1.9c0-0.7,0.2-1.2,0.6-1.5c0.4-0.4,1-0.6,1.9-0.8
		c0.9-0.1,2.2-0.2,3.8-0.2h0.6v0.8c0,1.3-0.4,2.3-1.1,3.1C718.6,427.7,717.6,428.1,716.5,428.1 M717.5,414.3c-0.9,0-1.9,0.1-2.9,0.4
		c-1,0.2-1.9,0.6-2.6,1c-0.4,0.2-0.7,0.5-0.9,0.7c-0.2,0.2-0.3,0.5-0.3,0.8c0,0.4,0.1,0.7,0.3,0.9c0.2,0.2,0.5,0.4,0.8,0.4
		c0.2,0,0.6-0.2,1.2-0.5c0.8-0.4,1.5-0.6,2.2-0.8c0.7-0.2,1.4-0.3,2.1-0.3c1.1,0,1.9,0.3,2.4,0.8c0.5,0.5,0.7,1.4,0.7,2.6v0.9h-0.7
		c-2.4,0-4.2,0.1-5.6,0.4c-1.4,0.3-2.3,0.7-2.9,1.4c-0.6,0.6-0.9,1.5-0.9,2.7c0,0.9,0.2,1.7,0.7,2.5c0.5,0.7,1.1,1.3,2,1.7
		c0.9,0.4,1.8,0.6,2.8,0.6c1.1,0,2-0.2,2.8-0.7c0.8-0.5,1.4-1.2,1.8-2.1v1.2c0,0.5,0.1,0.8,0.4,1.1c0.3,0.3,0.7,0.4,1.1,0.4
		c0.5,0,0.9-0.1,1.1-0.4c0.3-0.3,0.4-0.6,0.4-1.1v-8.3c0-2.1-0.5-3.7-1.5-4.8C721.1,414.8,719.5,414.3,717.5,414.3 M698.8,428
		c-1.4,0-2.5-0.5-3.3-1.5c-0.8-1-1.2-2.4-1.2-4.1c0-1.7,0.4-3.1,1.2-4c0.8-0.9,1.9-1.4,3.3-1.4c1.4,0,2.5,0.5,3.2,1.4
		c0.8,1,1.1,2.3,1.1,4.1c0,1.8-0.4,3.1-1.1,4.1C701.3,427.5,700.2,428,698.8,428 M704.8,407.6c-0.5,0-0.9,0.1-1.2,0.4
		c-0.3,0.3-0.4,0.6-0.4,1.1v8.1c-0.5-0.9-1.1-1.6-2-2.1c-0.9-0.5-1.9-0.8-3.1-0.8c-1.4,0-2.6,0.3-3.6,1c-1,0.7-1.9,1.6-2.4,2.8
		c-0.6,1.2-0.9,2.6-0.9,4.3c0,1.6,0.3,3,0.9,4.3c0.6,1.2,1.4,2.2,2.5,2.9c1.1,0.7,2.3,1,3.6,1c1.2,0,2.2-0.2,3.1-0.8
		c0.9-0.5,1.6-1.2,2-2.2v1.3c0,0.5,0.1,0.9,0.4,1.2c0.3,0.3,0.7,0.4,1.2,0.4c0.5,0,0.9-0.1,1.2-0.4c0.3-0.3,0.4-0.7,0.4-1.2v-19.8
		c0-0.5-0.2-0.8-0.4-1.1C705.7,407.7,705.3,407.6,704.8,407.6 M680.5,428.1c-0.8,0-1.5-0.2-2.1-0.7s-0.8-1.1-0.8-1.9
		c0-0.7,0.2-1.2,0.6-1.5c0.4-0.4,1-0.6,1.9-0.8c0.9-0.1,2.2-0.2,3.8-0.2h0.6v0.8c0,1.3-0.4,2.3-1.1,3.1
		C682.6,427.7,681.6,428.1,680.5,428.1 M681.5,414.3c-0.9,0-1.9,0.1-2.9,0.4c-1,0.2-1.9,0.6-2.6,1c-0.4,0.2-0.7,0.5-0.9,0.7
		c-0.2,0.2-0.3,0.5-0.3,0.8c0,0.4,0.1,0.7,0.3,0.9c0.2,0.2,0.5,0.4,0.8,0.4c0.2,0,0.6-0.2,1.2-0.5c0.8-0.4,1.5-0.6,2.2-0.8
		c0.7-0.2,1.4-0.3,2.1-0.3c1.1,0,1.9,0.3,2.4,0.8c0.5,0.5,0.7,1.4,0.7,2.6v0.9h-0.7c-2.4,0-4.2,0.1-5.6,0.4
		c-1.4,0.3-2.3,0.7-2.9,1.4c-0.6,0.6-0.9,1.5-0.9,2.7c0,0.9,0.2,1.7,0.7,2.5c0.5,0.7,1.1,1.3,2,1.7c0.9,0.4,1.8,0.6,2.8,0.6
		c1.1,0,2-0.2,2.8-0.7c0.8-0.5,1.4-1.2,1.8-2.1v1.2c0,0.5,0.1,0.8,0.4,1.1c0.3,0.3,0.6,0.4,1.1,0.4c0.5,0,0.9-0.1,1.2-0.4
		c0.3-0.3,0.4-0.6,0.4-1.1v-8.3c0-2.1-0.5-3.7-1.5-4.8C685.1,414.8,683.5,414.3,681.5,414.3 M664.9,414.3c-1.2,0-2.2,0.2-3.1,0.7
		c-0.9,0.5-1.6,1.2-2.1,2.1v-1.3c0-0.4-0.1-0.8-0.4-1.1c-0.3-0.3-0.7-0.4-1.1-0.4s-0.9,0.1-1.2,0.4c-0.3,0.3-0.5,0.7-0.5,1.1v13
		c0,0.5,0.1,0.8,0.4,1.1c0.3,0.3,0.7,0.4,1.2,0.4s0.9-0.1,1.2-0.4c0.3-0.3,0.4-0.6,0.4-1.1v-7.5c0-1.4,0.4-2.5,1.2-3.3
		c0.8-0.8,1.8-1.2,3.1-1.2c1.1,0,1.9,0.3,2.4,0.9c0.5,0.6,0.8,1.6,0.8,2.9v8.2c0,0.5,0.1,0.8,0.4,1.1c0.3,0.3,0.7,0.4,1.2,0.4
		c0.5,0,0.9-0.1,1.2-0.4c0.3-0.3,0.4-0.6,0.4-1.1v-8.3C670.5,416.4,668.6,414.3,664.9,414.3 M645,428.1c-0.8,0-1.5-0.2-2.1-0.7
		c-0.6-0.5-0.8-1.1-0.8-1.9c0-0.7,0.2-1.2,0.6-1.5c0.4-0.4,1-0.6,1.9-0.8c0.9-0.1,2.2-0.2,3.8-0.2h0.6v0.8c0,1.3-0.4,2.3-1.1,3.1
		C647.1,427.7,646.1,428.1,645,428.1 M646,414.3c-0.9,0-1.9,0.1-2.9,0.4c-1,0.2-1.9,0.6-2.6,1c-0.4,0.2-0.7,0.5-0.9,0.7
		c-0.2,0.2-0.3,0.5-0.3,0.8c0,0.4,0.1,0.7,0.3,0.9c0.2,0.2,0.5,0.4,0.8,0.4c0.2,0,0.6-0.2,1.2-0.5c0.8-0.4,1.5-0.6,2.2-0.8
		c0.7-0.2,1.4-0.3,2.1-0.3c1.1,0,1.9,0.3,2.4,0.8c0.5,0.5,0.7,1.4,0.7,2.6v0.9h-0.7c-2.4,0-4.2,0.1-5.6,0.4
		c-1.4,0.3-2.3,0.7-2.9,1.4c-0.6,0.6-0.9,1.5-0.9,2.7c0,0.9,0.2,1.7,0.7,2.5c0.5,0.7,1.1,1.3,2,1.7c0.9,0.4,1.8,0.6,2.8,0.6
		c1.1,0,2-0.2,2.8-0.7c0.8-0.5,1.4-1.2,1.8-2.1v1.2c0,0.5,0.1,0.8,0.4,1.1c0.3,0.3,0.6,0.4,1.1,0.4c0.5,0,0.9-0.1,1.2-0.4
		c0.3-0.3,0.4-0.6,0.4-1.1v-8.3c0-2.1-0.5-3.7-1.5-4.8C649.6,414.8,648,414.3,646,414.3 M628.3,430.6c1.4,0,2.7-0.2,4-0.7
		c1.3-0.4,2.4-1.1,3.3-1.9c0.4-0.3,0.6-0.7,0.6-1.3c0-0.4-0.1-0.7-0.3-1c-0.2-0.3-0.5-0.4-0.8-0.4c-0.3,0-0.6,0.1-1.1,0.4
		c-1.1,0.7-2,1.3-2.9,1.6c-0.8,0.3-1.8,0.5-2.8,0.5c-2.3,0-4.1-0.8-5.4-2.3c-1.3-1.5-1.9-3.7-1.9-6.6c0-2.8,0.6-5,1.9-6.5
		c1.3-1.5,3.1-2.3,5.4-2.3c1.1,0,2,0.2,2.9,0.5c0.8,0.3,1.8,0.8,2.8,1.6c0.3,0.3,0.7,0.4,1.1,0.4c0.3,0,0.6-0.1,0.8-0.4
		c0.2-0.3,0.3-0.6,0.3-1c0-0.5-0.2-1-0.6-1.3c-0.9-0.8-2-1.5-3.3-1.9c-1.3-0.4-2.6-0.7-4-0.7c-2.2,0-4,0.5-5.6,1.4
		c-1.6,0.9-2.8,2.3-3.7,4c-0.9,1.7-1.3,3.8-1.3,6.1c0,2.4,0.4,4.4,1.3,6.2c0.9,1.7,2.1,3.1,3.7,4
		C624.3,430.1,626.1,430.6,628.3,430.6 M599.7,430.5c1.9,0,3.5-0.4,4.7-1.3c1.2-0.8,1.7-2,1.7-3.3c0-0.9-0.2-1.6-0.5-2.2
		c-0.4-0.6-0.9-1-1.7-1.4c-0.8-0.4-1.9-0.7-3.4-1c-1.4-0.3-2.3-0.6-2.8-0.9c-0.5-0.3-0.8-0.8-0.8-1.4c0-0.7,0.3-1.2,0.8-1.6
		c0.5-0.4,1.3-0.6,2.2-0.6c0.7,0,1.4,0.1,1.9,0.3c0.5,0.2,1,0.5,1.6,0.8c0.3,0.2,0.6,0.3,0.8,0.4c0.2,0.1,0.4,0.1,0.6,0.1
		c0.3,0,0.5-0.1,0.7-0.4c0.2-0.2,0.3-0.5,0.3-0.9c0-0.6-0.4-1.2-1.1-1.6c-0.6-0.4-1.3-0.8-2.1-1c-0.8-0.2-1.6-0.3-2.5-0.3
		c-1.2,0-2.3,0.2-3.2,0.6c-0.9,0.4-1.7,1-2.2,1.7c-0.5,0.7-0.8,1.6-0.8,2.5c0,1.2,0.4,2.1,1.2,2.8c0.8,0.7,2.2,1.2,4,1.6
		c1.1,0.2,1.9,0.5,2.5,0.7c0.6,0.2,0.9,0.4,1.2,0.7c0.2,0.3,0.3,0.6,0.3,1c0,0.7-0.3,1.2-0.9,1.5c-0.6,0.4-1.4,0.5-2.4,0.5
		c-0.9,0-1.7-0.1-2.3-0.3c-0.6-0.2-1.2-0.5-1.9-0.8c-0.6-0.3-1-0.5-1.3-0.5c-0.3,0-0.5,0.1-0.7,0.4c-0.2,0.2-0.3,0.5-0.3,0.9
		c0,0.3,0.1,0.6,0.2,0.9c0.2,0.3,0.4,0.5,0.8,0.7C595.7,430.1,597.5,430.5,599.7,430.5 M584,416.7c1.2,0,2.2,0.4,2.8,1.2
		c0.7,0.8,1,1.9,1.1,3.3h-8.2c0.1-1.4,0.6-2.5,1.3-3.3C581.8,417.1,582.7,416.7,584,416.7 M589.5,426.4c-0.2,0-0.4,0.1-0.7,0.2
		c-0.3,0.1-0.5,0.2-0.5,0.3c-0.6,0.3-1.2,0.6-1.8,0.8c-0.6,0.2-1.3,0.3-2,0.3c-3,0-4.5-1.7-4.8-5h9.9c0.8,0,1.2-0.4,1.2-1.3
		c0-2.3-0.6-4.1-1.8-5.4c-1.2-1.3-2.9-2-5-2c-1.4,0-2.7,0.3-3.9,1c-1.1,0.7-2,1.6-2.7,2.9c-0.6,1.2-0.9,2.7-0.9,4.3
		c0,2.5,0.7,4.5,2.1,5.9c1.4,1.4,3.4,2.2,5.9,2.2c0.8,0,1.7-0.1,2.5-0.4c0.9-0.2,1.7-0.6,2.4-1c0.8-0.4,1.2-0.9,1.2-1.6
		c0-0.4-0.1-0.7-0.3-0.9C590.1,426.5,589.8,426.4,589.5,426.4 M568.6,430.5c0.9,0,1.7-0.1,2.6-0.4c0.9-0.2,1.6-0.6,2.2-1
		c0.4-0.3,0.7-0.5,0.8-0.8c0.2-0.2,0.2-0.5,0.2-0.8c0-0.4-0.1-0.7-0.3-0.9c-0.2-0.2-0.4-0.4-0.7-0.4c-0.2,0-0.4,0.1-0.6,0.2
		c-0.2,0.1-0.5,0.2-0.7,0.4c-0.5,0.3-1,0.6-1.5,0.8c-0.5,0.2-1.1,0.3-1.7,0.3c-1.5,0-2.6-0.5-3.4-1.4c-0.8-0.9-1.2-2.3-1.2-4
		c0-1.7,0.4-3.1,1.2-4.1c0.8-1,1.9-1.5,3.4-1.5c0.6,0,1.2,0.1,1.6,0.3c0.5,0.2,1,0.4,1.5,0.8c0.3,0.2,0.5,0.3,0.7,0.4
		c0.2,0.1,0.4,0.1,0.6,0.1c0.3,0,0.5-0.1,0.7-0.4c0.2-0.2,0.3-0.5,0.3-0.9c0-0.6-0.3-1.2-1-1.6c-0.6-0.4-1.4-0.7-2.2-1
		c-0.8-0.2-1.6-0.4-2.4-0.4c-1.5,0-2.9,0.3-4,1c-1.2,0.7-2.1,1.6-2.7,2.9c-0.7,1.2-1,2.7-1,4.3c0,1.6,0.3,3,0.9,4.2
		c0.6,1.2,1.5,2.2,2.7,2.8C565.7,430.2,567.1,430.5,568.6,430.5 M558.7,414.4l-0.4,0c-1,0.1-1.9,0.4-2.7,0.9
		c-0.8,0.5-1.4,1.2-1.9,2.1v-1.5c0-0.5-0.1-0.8-0.4-1.1c-0.3-0.3-0.6-0.4-1.1-0.4c-0.5,0-0.9,0.1-1.2,0.4c-0.3,0.3-0.5,0.6-0.5,1.1
		v13c0,0.5,0.2,0.9,0.5,1.2c0.3,0.3,0.7,0.4,1.2,0.4c0.5,0,0.9-0.1,1.2-0.4c0.3-0.3,0.4-0.6,0.4-1.2v-7.3c0-1.2,0.3-2.1,1-2.9
		c0.7-0.8,1.6-1.3,3-1.4l1-0.1c0.6,0,1-0.2,1.2-0.4c0.2-0.2,0.4-0.6,0.4-1.1C560.2,414.8,559.7,414.3,558.7,414.4 M544.4,414.4
		c-0.5,0-0.9,0.1-1.2,0.4c-0.3,0.3-0.4,0.7-0.4,1.1v7.5c0,1.3-0.4,2.4-1.1,3.2c-0.8,0.8-1.8,1.2-3,1.2c-1.1,0-1.9-0.3-2.4-0.9
		c-0.5-0.6-0.8-1.5-0.8-2.8V416c0-0.5-0.1-0.9-0.4-1.2c-0.3-0.3-0.7-0.4-1.2-0.4c-0.5,0-0.9,0.1-1.2,0.4c-0.3,0.3-0.4,0.7-0.4,1.2
		v8.3c0,4.2,1.9,6.3,5.7,6.3c1.1,0,2-0.2,2.9-0.7c0.9-0.5,1.5-1.2,2-2v1.2c0,0.4,0.1,0.8,0.4,1.1c0.3,0.3,0.6,0.4,1.1,0.4
		c0.5,0,0.9-0.1,1.2-0.4c0.3-0.3,0.4-0.6,0.4-1.1v-13c0-0.5-0.1-0.9-0.4-1.2C545.3,414.5,544.9,414.4,544.4,414.4 M521.1,428
		c-1.4,0-2.5-0.5-3.3-1.4c-0.8-0.9-1.1-2.3-1.1-4.1c0-1.8,0.4-3.2,1.2-4.1c0.8-0.9,1.9-1.4,3.3-1.4c1.4,0,2.5,0.5,3.3,1.4
		s1.2,2.3,1.2,4.1c0,1.8-0.4,3.2-1.1,4.1C523.6,427.5,522.5,428,521.1,428 M521.1,430.5c1.5,0,2.9-0.3,4-1c1.2-0.7,2.1-1.6,2.7-2.8
		c0.6-1.2,0.9-2.6,0.9-4.3c0-1.6-0.3-3.1-0.9-4.3c-0.6-1.2-1.5-2.2-2.7-2.8c-1.2-0.7-2.5-1-4-1s-2.9,0.3-4,1
		c-1.2,0.7-2.1,1.6-2.7,2.8c-0.6,1.2-0.9,2.7-0.9,4.3c0,1.6,0.3,3,0.9,4.3c0.6,1.2,1.5,2.2,2.7,2.8
		C518.2,430.2,519.5,430.5,521.1,430.5 M504.3,430.5c1.9,0,3.5-0.4,4.7-1.3c1.2-0.8,1.7-2,1.7-3.3c0-0.9-0.2-1.6-0.5-2.2
		c-0.4-0.6-0.9-1-1.7-1.4c-0.8-0.4-1.9-0.7-3.4-1c-1.4-0.3-2.3-0.6-2.8-0.9c-0.5-0.3-0.8-0.8-0.8-1.4c0-0.7,0.3-1.2,0.8-1.6
		c0.5-0.4,1.3-0.6,2.2-0.6c0.7,0,1.4,0.1,1.9,0.3c0.5,0.2,1,0.5,1.6,0.8c0.3,0.2,0.6,0.3,0.8,0.4c0.2,0.1,0.4,0.1,0.6,0.1
		c0.3,0,0.5-0.1,0.7-0.4c0.2-0.2,0.3-0.5,0.3-0.9c0-0.6-0.4-1.2-1.1-1.6c-0.6-0.4-1.3-0.8-2.1-1c-0.8-0.2-1.6-0.3-2.5-0.3
		c-1.2,0-2.3,0.2-3.2,0.6c-0.9,0.4-1.7,1-2.2,1.7c-0.5,0.7-0.8,1.6-0.8,2.5c0,1.2,0.4,2.1,1.2,2.8c0.8,0.7,2.2,1.2,4,1.6
		c1.1,0.2,1.9,0.5,2.5,0.7c0.6,0.2,0.9,0.4,1.2,0.7c0.2,0.3,0.3,0.6,0.3,1c0,0.7-0.3,1.2-0.9,1.5c-0.6,0.4-1.4,0.5-2.4,0.5
		c-0.9,0-1.7-0.1-2.3-0.3c-0.6-0.2-1.2-0.5-1.9-0.8c-0.6-0.3-1-0.5-1.3-0.5c-0.3,0-0.5,0.1-0.7,0.4c-0.2,0.2-0.3,0.5-0.3,0.9
		c0,0.3,0.1,0.6,0.2,0.9c0.2,0.3,0.4,0.5,0.8,0.7C500.4,430.1,502.2,430.5,504.3,430.5 M488.6,416.7c1.2,0,2.2,0.4,2.8,1.2
		c0.7,0.8,1,1.9,1.1,3.3h-8.2c0.1-1.4,0.6-2.5,1.3-3.3C486.4,417.1,487.4,416.7,488.6,416.7 M494.2,426.4c-0.2,0-0.4,0.1-0.7,0.2
		c-0.3,0.1-0.5,0.2-0.5,0.3c-0.6,0.3-1.2,0.6-1.8,0.8c-0.6,0.2-1.3,0.3-2,0.3c-3,0-4.5-1.7-4.8-5h9.9c0.8,0,1.1-0.4,1.1-1.3
		c0-2.3-0.6-4.1-1.8-5.4c-1.2-1.3-2.9-2-5-2c-1.4,0-2.7,0.3-3.9,1c-1.1,0.7-2,1.6-2.7,2.9c-0.6,1.2-0.9,2.7-0.9,4.3
		c0,2.5,0.7,4.5,2.1,5.9c1.4,1.4,3.4,2.2,5.9,2.2c0.8,0,1.7-0.1,2.5-0.4c0.9-0.2,1.7-0.6,2.4-1c0.8-0.4,1.2-0.9,1.2-1.6
		c0-0.4-0.1-0.7-0.3-0.9C494.7,426.5,494.5,426.4,494.2,426.4 M463.5,418.3v-7.9h6c1.7,0,2.9,0.3,3.7,0.9c0.8,0.6,1.2,1.6,1.2,3
		c0,1.4-0.4,2.4-1.2,3s-2,1-3.7,1H463.5z M477.9,428.3l-3.3-5.2c-0.4-0.7-0.9-1.2-1.3-1.6c-0.4-0.4-0.9-0.6-1.5-0.8
		c1.9-0.3,3.3-1,4.3-2.1c1-1.1,1.5-2.5,1.5-4.3c0-2.1-0.7-3.8-2-4.9c-1.3-1.1-3.2-1.7-5.7-1.7h-8c-0.5,0-0.9,0.1-1.2,0.4
		c-0.3,0.3-0.4,0.7-0.4,1.2v19.4c0,0.5,0.1,0.9,0.4,1.2c0.3,0.3,0.7,0.4,1.2,0.4c0.5,0,0.9-0.1,1.2-0.4c0.3-0.3,0.4-0.7,0.4-1.2V421
		h3.6c0.9,0,1.6,0.2,2.2,0.5c0.6,0.3,1.1,0.8,1.6,1.6l4.3,6.6c0.4,0.5,0.8,0.8,1.4,0.8c0.4,0,0.8-0.1,1.1-0.4c0.3-0.3,0.5-0.6,0.5-1
		C478.2,428.8,478.1,428.5,477.9,428.3 M441.5,430.5c1.9,0,3.5-0.4,4.6-1.3c1.2-0.8,1.7-2,1.7-3.3c0-0.9-0.2-1.6-0.5-2.2
		c-0.4-0.6-0.9-1-1.7-1.4c-0.8-0.4-1.9-0.7-3.4-1c-1.4-0.3-2.3-0.6-2.8-0.9c-0.5-0.3-0.8-0.8-0.8-1.4c0-0.7,0.3-1.2,0.8-1.6
		s1.3-0.6,2.2-0.6c0.7,0,1.4,0.1,1.9,0.3c0.5,0.2,1,0.5,1.6,0.8c0.3,0.2,0.6,0.3,0.8,0.4c0.2,0.1,0.4,0.1,0.6,0.1
		c0.3,0,0.5-0.1,0.7-0.4c0.2-0.2,0.3-0.5,0.3-0.9c0-0.6-0.4-1.2-1.1-1.6c-0.6-0.4-1.3-0.8-2.1-1s-1.6-0.3-2.5-0.3
		c-1.2,0-2.3,0.2-3.2,0.6c-0.9,0.4-1.7,1-2.2,1.7c-0.5,0.7-0.8,1.6-0.8,2.5c0,1.2,0.4,2.1,1.2,2.8c0.8,0.7,2.2,1.2,4,1.6
		c1.1,0.2,1.9,0.5,2.5,0.7c0.6,0.2,0.9,0.4,1.2,0.7c0.2,0.3,0.3,0.6,0.3,1c0,0.7-0.3,1.2-0.9,1.5c-0.6,0.4-1.4,0.5-2.4,0.5
		c-0.9,0-1.7-0.1-2.3-0.3c-0.6-0.2-1.2-0.5-1.9-0.8c-0.6-0.3-1-0.5-1.3-0.5c-0.3,0-0.5,0.1-0.7,0.4c-0.2,0.2-0.3,0.5-0.3,0.9
		c0,0.3,0.1,0.6,0.2,0.9c0.2,0.3,0.4,0.5,0.8,0.7C437.6,430.1,439.3,430.5,441.5,430.5 M430,414.4c-0.5,0-0.9,0.1-1.2,0.4
		c-0.3,0.3-0.4,0.7-0.4,1.1v7.5c0,1.3-0.4,2.4-1.1,3.2c-0.8,0.8-1.8,1.2-3,1.2c-1.1,0-1.9-0.3-2.4-0.9c-0.5-0.6-0.8-1.5-0.8-2.8V416
		c0-0.5-0.1-0.9-0.4-1.2s-0.7-0.4-1.2-0.4c-0.5,0-0.9,0.1-1.2,0.4c-0.3,0.3-0.4,0.7-0.4,1.2v8.3c0,4.2,1.9,6.3,5.7,6.3
		c1.1,0,2-0.2,2.9-0.7c0.9-0.5,1.5-1.2,2-2v1.2c0,0.4,0.1,0.8,0.4,1.1c0.3,0.3,0.6,0.4,1.1,0.4c0.5,0,0.9-0.1,1.2-0.4
		c0.3-0.3,0.4-0.6,0.4-1.1v-13c0-0.5-0.1-0.9-0.4-1.2C430.9,414.5,430.5,414.4,430,414.4 M406.6,428c-1.4,0-2.5-0.5-3.3-1.4
		c-0.8-0.9-1.1-2.3-1.1-4.1c0-1.8,0.4-3.2,1.2-4.1s1.9-1.4,3.3-1.4c1.4,0,2.5,0.5,3.3,1.4s1.2,2.3,1.2,4.1c0,1.8-0.4,3.2-1.1,4.1
		C409.2,427.5,408.1,428,406.6,428 M406.6,430.5c1.5,0,2.9-0.3,4-1c1.2-0.7,2.1-1.6,2.7-2.8c0.6-1.2,0.9-2.6,0.9-4.3
		c0-1.6-0.3-3.1-0.9-4.3c-0.6-1.2-1.5-2.2-2.7-2.8c-1.2-0.7-2.5-1-4-1c-1.5,0-2.9,0.3-4,1c-1.2,0.7-2.1,1.6-2.7,2.8
		c-0.6,1.2-0.9,2.7-0.9,4.3c0,1.6,0.3,3,0.9,4.3c0.6,1.2,1.5,2.2,2.7,2.8C403.8,430.2,405.1,430.5,406.6,430.5 M389.9,414.3
		c-1.1,0-2.2,0.2-3.1,0.7c-0.9,0.5-1.6,1.2-2.1,2.1v-1.3c0-0.4-0.1-0.8-0.4-1.1c-0.3-0.3-0.6-0.4-1.1-0.4s-0.9,0.1-1.2,0.4
		s-0.5,0.7-0.5,1.1v13c0,0.5,0.1,0.8,0.4,1.1c0.3,0.3,0.7,0.4,1.2,0.4s0.9-0.1,1.2-0.4c0.3-0.3,0.4-0.6,0.4-1.1v-7.5
		c0-1.4,0.4-2.5,1.2-3.3c0.8-0.8,1.8-1.2,3.1-1.2c1.1,0,1.9,0.3,2.4,0.9c0.5,0.6,0.8,1.6,0.8,2.9v8.2c0,0.5,0.1,0.8,0.4,1.1
		c0.3,0.3,0.7,0.4,1.2,0.4c0.5,0,0.9-0.1,1.2-0.4c0.3-0.3,0.4-0.6,0.4-1.1v-8.3C395.5,416.4,393.6,414.3,389.9,414.3 M371.2,416.7
		c1.2,0,2.2,0.4,2.8,1.2c0.7,0.8,1,1.9,1.1,3.3h-8.2c0.1-1.4,0.6-2.5,1.3-3.3C369,417.1,370,416.7,371.2,416.7 M376.8,426.4
		c-0.2,0-0.4,0.1-0.7,0.2c-0.3,0.1-0.5,0.2-0.5,0.3c-0.6,0.3-1.2,0.6-1.8,0.8c-0.6,0.2-1.3,0.3-2,0.3c-3,0-4.5-1.7-4.8-5h9.9
		c0.8,0,1.1-0.4,1.1-1.3c0-2.3-0.6-4.1-1.8-5.4c-1.2-1.3-2.9-2-5-2c-1.4,0-2.7,0.3-3.9,1c-1.1,0.7-2,1.6-2.7,2.9
		c-0.6,1.2-0.9,2.7-0.9,4.3c0,2.5,0.7,4.5,2.1,5.9c1.4,1.4,3.4,2.2,5.8,2.2c0.8,0,1.7-0.1,2.5-0.4c0.9-0.2,1.7-0.6,2.4-1
		c0.8-0.4,1.1-0.9,1.1-1.6c0-0.4-0.1-0.7-0.3-0.9C377.3,426.5,377.1,426.4,376.8,426.4 M352.4,427.3c-1.4,0-2.5-0.5-3.3-1.4
		c-0.8-0.9-1.2-2.2-1.2-3.8c0-1.6,0.4-2.9,1.2-3.8c0.8-0.9,1.9-1.4,3.3-1.4c1.4,0,2.5,0.5,3.3,1.4s1.2,2.2,1.2,3.8
		c0,1.6-0.4,2.9-1.2,3.8C354.9,426.8,353.8,427.3,352.4,427.3 M358.4,414.4c-0.5,0-0.9,0.1-1.2,0.4c-0.3,0.3-0.4,0.6-0.4,1.1v1.3
		c-0.5-0.9-1.2-1.7-2.1-2.2c-0.9-0.5-2-0.8-3.1-0.8c-1.4,0-2.6,0.3-3.6,1c-1.1,0.7-1.9,1.6-2.5,2.7c-0.6,1.2-0.9,2.5-0.9,4.1
		c0,1.5,0.3,2.9,0.9,4.1c0.6,1.2,1.4,2.1,2.5,2.7c1.1,0.6,2.3,1,3.6,1c1.2,0,2.3-0.3,3.2-0.8c0.9-0.5,1.6-1.3,2-2.2v2.5
		c0,3-1.5,4.4-4.4,4.4c-0.9,0-1.7-0.1-2.4-0.3c-0.7-0.2-1.4-0.5-2.1-0.8c-0.6-0.3-1-0.5-1.3-0.5c-0.3,0-0.5,0.1-0.8,0.4
		c-0.2,0.2-0.3,0.5-0.3,0.9c0,0.6,0.4,1.2,1.2,1.6c1.5,0.9,3.5,1.3,5.8,1.3c2.5,0,4.3-0.6,5.6-1.8c1.3-1.2,1.9-3,1.9-5.4V416
		c0-0.5-0.1-0.8-0.4-1.1C359.3,414.5,358.9,414.4,358.4,414.4 M339.4,411.3c0.6,0,1.1-0.2,1.5-0.5c0.4-0.3,0.5-0.8,0.5-1.3
		c0-0.6-0.2-1-0.6-1.3c-0.4-0.3-0.9-0.5-1.5-0.5c-0.6,0-1.1,0.2-1.5,0.5c-0.4,0.3-0.5,0.8-0.5,1.3c0,0.6,0.2,1,0.5,1.3
		C338.3,411.1,338.8,411.3,339.4,411.3 M339.4,430.5c0.5,0,0.9-0.1,1.2-0.4c0.3-0.3,0.4-0.6,0.4-1.2v-13c0-0.5-0.1-0.9-0.4-1.2
		c-0.3-0.3-0.7-0.4-1.2-0.4c-0.5,0-0.9,0.1-1.2,0.4c-0.3,0.3-0.5,0.7-0.5,1.2v13c0,0.5,0.2,0.9,0.5,1.2
		C338.6,430.3,339,430.5,339.4,430.5 M325.7,428c-1.4,0-2.5-0.5-3.3-1.5c-0.8-1-1.2-2.4-1.2-4.1c0-1.7,0.4-3.1,1.2-4
		c0.8-0.9,1.9-1.4,3.3-1.4c1.4,0,2.5,0.5,3.2,1.4c0.8,1,1.1,2.3,1.1,4.1c0,1.8-0.4,3.1-1.2,4.1C328.2,427.5,327.1,428,325.7,428
		 M331.7,407.6c-0.5,0-0.9,0.1-1.2,0.4c-0.3,0.3-0.4,0.6-0.4,1.1v8.1c-0.5-0.9-1.1-1.6-2-2.1c-0.9-0.5-1.9-0.8-3.1-0.8
		c-1.4,0-2.6,0.3-3.6,1c-1,0.7-1.9,1.6-2.4,2.8c-0.6,1.2-0.9,2.6-0.9,4.3c0,1.6,0.3,3,0.9,4.3c0.6,1.2,1.4,2.2,2.5,2.9
		c1.1,0.7,2.3,1,3.6,1c1.2,0,2.2-0.2,3.1-0.8c0.9-0.5,1.6-1.2,2-2.2v1.3c0,0.5,0.1,0.9,0.4,1.2c0.3,0.3,0.7,0.4,1.2,0.4
		s0.9-0.1,1.2-0.4c0.3-0.3,0.4-0.7,0.4-1.2v-19.8c0-0.5-0.1-0.8-0.4-1.1C332.5,407.7,332.2,407.6,331.7,407.6 M308.9,414.3
		c-1.2,0-2.2,0.2-3.1,0.7c-0.9,0.5-1.6,1.2-2.1,2.1v-1.3c0-0.4-0.1-0.8-0.4-1.1s-0.6-0.4-1.1-0.4s-0.9,0.1-1.2,0.4
		c-0.3,0.3-0.5,0.7-0.5,1.1v13c0,0.5,0.1,0.8,0.4,1.1c0.3,0.3,0.7,0.4,1.2,0.4c0.5,0,0.9-0.1,1.2-0.4c0.3-0.3,0.4-0.6,0.4-1.1v-7.5
		c0-1.4,0.4-2.5,1.2-3.3c0.8-0.8,1.8-1.2,3.1-1.2c1.1,0,1.9,0.3,2.4,0.9c0.5,0.6,0.8,1.6,0.8,2.9v8.2c0,0.5,0.1,0.8,0.4,1.1
		c0.3,0.3,0.7,0.4,1.2,0.4c0.5,0,0.9-0.1,1.2-0.4c0.3-0.3,0.4-0.6,0.4-1.1v-8.3C314.5,416.4,312.6,414.3,308.9,414.3 M294,430.5
		c0.5,0,0.9-0.1,1.2-0.4c0.3-0.3,0.4-0.7,0.4-1.2v-19.5c0-0.5-0.1-0.9-0.4-1.2c-0.3-0.3-0.7-0.4-1.2-0.4c-0.5,0-0.9,0.2-1.2,0.5
		c-0.3,0.3-0.4,0.7-0.4,1.2v19.5c0,0.5,0.1,0.9,0.4,1.2C293.1,430.3,293.5,430.5,294,430.5 M271.4,427.3c-1.4,0-2.5-0.5-3.3-1.4
		c-0.8-0.9-1.2-2.2-1.2-3.8c0-1.6,0.4-2.9,1.2-3.8c0.8-0.9,1.9-1.4,3.3-1.4c1.4,0,2.5,0.5,3.3,1.4s1.2,2.2,1.2,3.8
		c0,1.6-0.4,2.9-1.2,3.8C273.9,426.8,272.8,427.3,271.4,427.3 M277.4,414.4c-0.5,0-0.9,0.1-1.2,0.4c-0.3,0.3-0.4,0.6-0.4,1.1v1.3
		c-0.5-0.9-1.2-1.7-2.1-2.2c-0.9-0.5-2-0.8-3.1-0.8c-1.4,0-2.6,0.3-3.6,1c-1.1,0.7-1.9,1.6-2.5,2.7c-0.6,1.2-0.9,2.5-0.9,4.1
		c0,1.5,0.3,2.9,0.9,4.1c0.6,1.2,1.4,2.1,2.5,2.7c1.1,0.6,2.3,1,3.6,1c1.2,0,2.3-0.3,3.2-0.8c0.9-0.5,1.6-1.3,2-2.2v2.5
		c0,3-1.5,4.4-4.4,4.4c-0.9,0-1.7-0.1-2.4-0.3c-0.7-0.2-1.4-0.5-2.1-0.8c-0.6-0.3-1-0.5-1.3-0.5c-0.3,0-0.5,0.1-0.8,0.4
		c-0.2,0.2-0.3,0.5-0.3,0.9c0,0.6,0.4,1.2,1.2,1.6c1.5,0.9,3.5,1.3,5.8,1.3c2.5,0,4.3-0.6,5.6-1.8c1.3-1.2,1.9-3,1.9-5.4V416
		c0-0.5-0.1-0.8-0.4-1.1C278.3,414.5,277.9,414.4,277.4,414.4 M254.5,414.3c-1.2,0-2.2,0.2-3.1,0.7c-0.9,0.5-1.6,1.2-2.1,2.1v-1.3
		c0-0.4-0.1-0.8-0.4-1.1c-0.3-0.3-0.7-0.4-1.1-0.4c-0.5,0-0.9,0.1-1.2,0.4c-0.3,0.3-0.5,0.7-0.5,1.1v13c0,0.5,0.1,0.8,0.4,1.1
		c0.3,0.3,0.7,0.4,1.2,0.4c0.5,0,0.9-0.1,1.2-0.4c0.3-0.3,0.4-0.6,0.4-1.1v-7.5c0-1.4,0.4-2.5,1.2-3.3c0.8-0.8,1.8-1.2,3.1-1.2
		c1.1,0,1.9,0.3,2.4,0.9c0.5,0.6,0.8,1.6,0.8,2.9v8.2c0,0.5,0.1,0.8,0.4,1.1c0.3,0.3,0.7,0.4,1.2,0.4c0.5,0,0.9-0.1,1.2-0.4
		c0.3-0.3,0.4-0.6,0.4-1.1v-8.3C260.1,416.4,258.2,414.3,254.5,414.3 M240,411.3c0.6,0,1.1-0.2,1.5-0.5c0.4-0.3,0.5-0.8,0.5-1.3
		c0-0.6-0.2-1-0.6-1.3c-0.4-0.3-0.9-0.5-1.5-0.5c-0.6,0-1.1,0.2-1.5,0.5c-0.4,0.3-0.5,0.8-0.5,1.3c0,0.6,0.2,1,0.5,1.3
		C238.9,411.1,239.4,411.3,240,411.3 M240,430.5c0.5,0,0.9-0.1,1.2-0.4c0.3-0.3,0.4-0.6,0.4-1.2v-13c0-0.5-0.1-0.9-0.4-1.2
		c-0.3-0.3-0.7-0.4-1.2-0.4s-0.9,0.1-1.2,0.4c-0.3,0.3-0.5,0.7-0.5,1.2v13c0,0.5,0.2,0.9,0.5,1.2C239.1,430.3,239.5,430.5,240,430.5
		 M234.7,428l-0.9-0.1c-0.9-0.1-1.5-0.3-1.9-0.8c-0.4-0.5-0.6-1.2-0.6-2.2v-7.7h3.2c0.4,0,0.8-0.1,1-0.3c0.2-0.2,0.4-0.5,0.4-0.9
		c0-0.4-0.1-0.7-0.4-0.9c-0.2-0.2-0.6-0.3-1-0.3h-3.2v-3.3c0-0.5-0.1-0.9-0.4-1.2c-0.3-0.3-0.7-0.4-1.2-0.4c-0.5,0-0.9,0.1-1.2,0.4
		c-0.3,0.3-0.4,0.7-0.4,1.2v3.3h-1.9c-0.4,0-0.8,0.1-1,0.3c-0.2,0.2-0.4,0.5-0.4,0.9c0,0.8,0.5,1.2,1.4,1.2h1.9v7.5
		c0,1.8,0.4,3.2,1.3,4.1c0.9,0.9,2.1,1.5,3.9,1.6l0.9,0.1c0.6,0,1.1,0,1.5-0.3c0.3-0.2,0.5-0.5,0.5-1c0-0.4-0.1-0.6-0.3-0.8
		C235.5,428.2,235.2,428,234.7,428 M218.3,430.5c0.9,0,1.7-0.1,2.6-0.4c0.9-0.2,1.6-0.6,2.2-1c0.4-0.3,0.7-0.5,0.8-0.8
		c0.2-0.2,0.2-0.5,0.2-0.8c0-0.4-0.1-0.7-0.3-0.9c-0.2-0.2-0.4-0.4-0.7-0.4c-0.2,0-0.4,0.1-0.6,0.2c-0.2,0.1-0.5,0.2-0.7,0.4
		c-0.5,0.3-1,0.6-1.5,0.8c-0.5,0.2-1.1,0.3-1.7,0.3c-1.4,0-2.6-0.5-3.4-1.4s-1.2-2.3-1.2-4c0-1.7,0.4-3.1,1.2-4.1
		c0.8-1,1.9-1.5,3.4-1.5c0.6,0,1.2,0.1,1.6,0.3c0.5,0.2,1,0.4,1.5,0.8c0.3,0.2,0.5,0.3,0.7,0.4c0.2,0.1,0.4,0.1,0.6,0.1
		c0.3,0,0.5-0.1,0.7-0.4c0.2-0.2,0.3-0.5,0.3-0.9c0-0.6-0.3-1.2-1-1.6c-0.6-0.4-1.4-0.7-2.2-1c-0.8-0.2-1.6-0.4-2.4-0.4
		c-1.5,0-2.9,0.3-4,1c-1.2,0.7-2.1,1.6-2.7,2.9c-0.7,1.2-1,2.7-1,4.3c0,1.6,0.3,3,0.9,4.2c0.6,1.2,1.5,2.2,2.7,2.8
		C215.4,430.2,216.7,430.5,218.3,430.5 M201.3,416.7c1.2,0,2.2,0.4,2.8,1.2c0.7,0.8,1,1.9,1.1,3.3H197c0.1-1.4,0.6-2.5,1.3-3.3
		C199.1,417.1,200.1,416.7,201.3,416.7 M206.9,426.4c-0.2,0-0.4,0.1-0.7,0.2c-0.3,0.1-0.5,0.2-0.5,0.3c-0.6,0.3-1.2,0.6-1.8,0.8
		c-0.6,0.2-1.3,0.3-2,0.3c-3,0-4.6-1.7-4.8-5h9.9c0.8,0,1.2-0.4,1.2-1.3c0-2.3-0.6-4.1-1.8-5.4c-1.2-1.3-2.9-2-5-2
		c-1.4,0-2.7,0.3-3.9,1c-1.1,0.7-2,1.6-2.7,2.9c-0.6,1.2-0.9,2.7-0.9,4.3c0,2.5,0.7,4.5,2.1,5.9c1.4,1.4,3.4,2.2,5.9,2.2
		c0.8,0,1.7-0.1,2.5-0.4c0.9-0.2,1.7-0.6,2.4-1c0.8-0.4,1.2-0.9,1.2-1.6c0-0.4-0.1-0.7-0.3-0.9C207.4,426.5,207.2,426.4,206.9,426.4
		 M184.7,414.3c-1.2,0-2.2,0.2-3.1,0.7c-0.9,0.5-1.6,1.2-2.1,2.1v-1.3c0-0.4-0.1-0.8-0.4-1.1c-0.3-0.3-0.7-0.4-1.1-0.4
		c-0.5,0-0.9,0.1-1.2,0.4c-0.3,0.3-0.5,0.7-0.5,1.1v13c0,0.5,0.1,0.8,0.4,1.1c0.3,0.3,0.7,0.4,1.2,0.4c0.5,0,0.9-0.1,1.2-0.4
		c0.3-0.3,0.4-0.6,0.4-1.1v-7.5c0-1.4,0.4-2.5,1.2-3.3c0.8-0.8,1.8-1.2,3.1-1.2c1.1,0,1.9,0.3,2.4,0.9c0.5,0.6,0.8,1.6,0.8,2.9v8.2
		c0,0.5,0.1,0.8,0.4,1.1c0.3,0.3,0.7,0.4,1.2,0.4c0.5,0,0.9-0.1,1.2-0.4c0.3-0.3,0.4-0.6,0.4-1.1v-8.3
		C190.3,416.4,188.4,414.3,184.7,414.3 M166.3,414.3c-1.2,0-2.2,0.2-3.1,0.7c-0.9,0.5-1.6,1.2-2.1,2.1v-1.3c0-0.4-0.1-0.8-0.4-1.1
		s-0.6-0.4-1.1-0.4c-0.5,0-0.9,0.1-1.2,0.4c-0.3,0.3-0.5,0.7-0.5,1.1v13c0,0.5,0.1,0.8,0.4,1.1c0.3,0.3,0.7,0.4,1.2,0.4
		c0.5,0,0.9-0.1,1.2-0.4c0.3-0.3,0.4-0.6,0.4-1.1v-7.5c0-1.4,0.4-2.5,1.2-3.3c0.8-0.8,1.8-1.2,3.1-1.2c1.1,0,1.9,0.3,2.4,0.9
		c0.5,0.6,0.8,1.6,0.8,2.9v8.2c0,0.5,0.1,0.8,0.4,1.1c0.3,0.3,0.7,0.4,1.2,0.4c0.5,0,0.9-0.1,1.2-0.4c0.3-0.3,0.4-0.6,0.4-1.1v-8.3
		C171.8,416.4,170,414.3,166.3,414.3 M146.6,428c-1.4,0-2.5-0.5-3.3-1.4c-0.8-0.9-1.1-2.3-1.1-4.1c0-1.8,0.4-3.2,1.2-4.1
		s1.9-1.4,3.3-1.4c1.4,0,2.5,0.5,3.3,1.4s1.1,2.3,1.1,4.1c0,1.8-0.4,3.2-1.1,4.1C149.1,427.5,148,428,146.6,428 M146.6,430.5
		c1.5,0,2.9-0.3,4-1c1.2-0.7,2.1-1.6,2.7-2.8c0.6-1.2,0.9-2.6,0.9-4.3c0-1.6-0.3-3.1-0.9-4.3c-0.6-1.2-1.5-2.2-2.7-2.8
		c-1.2-0.7-2.5-1-4-1c-1.5,0-2.9,0.3-4,1c-1.2,0.7-2.1,1.6-2.7,2.8c-0.6,1.2-0.9,2.7-0.9,4.3c0,1.6,0.3,3,0.9,4.3
		c0.6,1.2,1.5,2.2,2.7,2.8C143.7,430.2,145.1,430.5,146.6,430.5 M128.7,430.6c1.4,0,2.7-0.2,4-0.7c1.3-0.4,2.4-1.1,3.3-1.9
		c0.4-0.3,0.6-0.7,0.6-1.3c0-0.4-0.1-0.7-0.3-1c-0.2-0.3-0.5-0.4-0.8-0.4c-0.3,0-0.6,0.1-1.1,0.4c-1.1,0.7-2,1.3-2.9,1.6
		c-0.8,0.3-1.8,0.5-2.8,0.5c-2.3,0-4.1-0.8-5.4-2.3c-1.3-1.5-1.9-3.7-1.9-6.6c0-2.8,0.6-5,1.9-6.5c1.3-1.5,3.1-2.3,5.4-2.3
		c1.1,0,2,0.2,2.9,0.5c0.8,0.3,1.8,0.8,2.8,1.6c0.3,0.3,0.7,0.4,1.1,0.4c0.3,0,0.6-0.1,0.8-0.4c0.2-0.3,0.3-0.6,0.3-1
		c0-0.5-0.2-1-0.6-1.3c-0.9-0.8-2-1.5-3.3-1.9c-1.3-0.4-2.6-0.7-4-0.7c-2.2,0-4,0.5-5.6,1.4c-1.6,0.9-2.8,2.3-3.7,4
		c-0.9,1.7-1.3,3.8-1.3,6.1c0,2.4,0.4,4.4,1.3,6.2c0.9,1.7,2.1,3.1,3.7,4C124.7,430.1,126.5,430.6,128.7,430.6"/>
</g>
<line class="st1" x1="116.3" y1="375.9" x2="725.8" y2="375.9"/>
<g>
	<defs>
		<rect id="SVGID_3_" x="113" y="159.9" width="615.7" height="276.3"/>
	</defs>
	<clipPath id="SVGID_4_">
		<use xlink:href="#SVGID_3_"  style="overflow:visible;"/>
	</clipPath>
	<path class="st2" d="M723.2,270.6l5.3-6.2c-4.3-4.1-9.4-7.3-15.1-9.6c-5.7-2.3-11.7-3.4-17.8-3.4c-8.6,0-16.5,2.1-23.8,6.2
		c-7.2,4.1-13,9.7-17.2,16.7c-4.3,7-6.4,14.8-6.4,23.2c0,8.4,2.1,16.2,6.3,23.3c4.2,7.1,9.9,12.8,17.1,16.9
		c7.2,4.2,15.1,6.2,23.7,6.2c6.1,0,12-1.2,17.8-3.6c5.8-2.4,11-5.7,15.5-9.9l-5.5-5.9c-3.7,3.5-8,6.2-12.8,8.1
		c-4.8,2-9.7,2.9-14.7,2.9c-7,0-13.5-1.7-19.3-5.1c-5.9-3.4-10.5-8-13.9-13.9c-3.4-5.8-5.1-12.2-5.1-19.1c0-6.9,1.7-13.3,5.1-19.2
		c3.4-5.9,8.1-10.5,13.9-13.9c5.9-3.4,12.3-5.1,19.3-5.1c5.1,0,10.1,1,14.8,3C715.4,264.3,719.6,267,723.2,270.6 M467.9,305.6v-45.4
		h25c8.7,0,15.4,1.9,20,5.7c4.7,3.8,7,9.4,7,16.7c0,7.5-2.3,13.2-7,17.1c-4.7,4-11.4,5.9-20,5.9H467.9z M529.3,343.1l-21.9-31.4
		c6.8-2,12-5.5,15.6-10.5c3.6-5,5.5-11.3,5.5-18.9c0-9.6-3.1-17.1-9.3-22.3c-6.2-5.2-15-7.9-26.4-7.9h-34v91h9v-29.4h25
		c1.5,0,3.6-0.1,6.4-0.3l19.7,29.7H529.3z M188,270.6l5.3-6.2c-4.3-4.1-9.4-7.3-15.1-9.6c-5.7-2.3-11.7-3.4-17.8-3.4
		c-8.6,0-16.5,2.1-23.8,6.2c-7.2,4.1-13,9.7-17.2,16.7c-4.3,7-6.4,14.8-6.4,23.2c0,8.4,2.1,16.2,6.3,23.3
		c4.2,7.1,9.9,12.8,17.1,16.9c7.2,4.2,15.1,6.2,23.7,6.2c6.1,0,12-1.2,17.8-3.6c5.8-2.4,11-5.7,15.5-9.9l-5.5-5.9
		c-3.7,3.5-8,6.2-12.8,8.1c-4.8,2-9.7,2.9-14.7,2.9c-7,0-13.5-1.7-19.3-5.1c-5.9-3.4-10.5-8-13.9-13.9c-3.4-5.8-5.1-12.2-5.1-19.1
		c0-6.9,1.7-13.3,5.1-19.2c3.4-5.9,8.1-10.5,13.9-13.9c5.9-3.4,12.3-5.1,19.3-5.1c5.1,0,10.1,1,14.8,3
		C180.1,264.3,184.3,267,188,270.6"/>
</g>
<polygon class="st3" points="322.7,159.9 309.6,188.3 288.6,183.4 307.5,220.2 271.1,201.4 275.9,222.4 247.6,235.5 275.9,248.6 
	271.1,269.6 317.8,260.9 319.1,260.5 319.1,343.9 326.3,343.9 326.3,260.5 327.6,260.9 374.4,269.6 369.5,248.6 397.9,235.5 
	369.5,222.4 374.4,201.4 337.9,220.2 356.8,183.4 335.8,188.3 "/>
</svg>
