<?xml version="1.0" encoding="utf-8"?>
<!-- Generator: Adobe Illustrator 21.0.0, SVG Export Plug-In . SVG Version: 6.00 Build 0)  -->
<svg version="1.1" id="Layer_1" xmlns="http://www.w3.org/2000/svg" xmlns:xlink="http://www.w3.org/1999/xlink" x="0px" y="0px"
	 viewBox="0 0 841.9 595.3" style="enable-background:new 0 0 841.9 595.3;" xml:space="preserve">
<style type="text/css">
	.st0{clip-path:url(#SVGID_2_);fill:#FFFFFF;}
	.st1{fill:none;stroke:#FFFFFF;stroke-width:1.037;}
	.st2{clip-path:url(#SVGID_4_);fill:#FFFFFF;}
	.st3{fill:#D42E27;}
</style>
<g>
	<defs>
		<rect id="SVGID_1_" x="113" y="159.9" width="615.7" height="276.3"/>
	</defs>
	<clipPath id="SVGID_2_">
		<use xlink:href="#SVGID_1_"  style="overflow:visible;"/>
	</clipPath>
	<path class="st0" d="M721.5,428.1c-0.8,0-1.5-0.2-2.1-0.7c-0.6-0.5-0.8-1.1-0.8-1.9c0-0.7,0.2-1.2,0.6-1.5c0.4-0.4,1-0.6,1.9-0.8
		c0.9-0.2,2.2-0.2,3.9-0.2h0.6v0.8c0,1.3-0.4,2.3-1.1,3.1C723.7,427.7,722.7,428.1,721.5,428.1 M722.5,414.1c-0.9,0-1.9,0.1-2.9,0.4
		s-1.9,0.6-2.6,1c-0.4,0.2-0.7,0.5-0.9,0.7c-0.2,0.2-0.3,0.5-0.3,0.9c0,0.4,0.1,0.7,0.3,0.9c0.2,0.2,0.5,0.4,0.8,0.4
		c0.2,0,0.6-0.2,1.2-0.5c0.8-0.4,1.5-0.6,2.2-0.8c0.7-0.2,1.4-0.3,2.1-0.3c1.1,0,1.9,0.3,2.4,0.8c0.5,0.5,0.7,1.4,0.7,2.6v0.9h-0.7
		c-2.4,0-4.3,0.1-5.6,0.4c-1.4,0.3-2.3,0.7-2.9,1.4c-0.6,0.7-0.9,1.6-0.9,2.7c0,0.9,0.2,1.8,0.7,2.5c0.5,0.8,1.2,1.3,2,1.8
		c0.9,0.4,1.8,0.6,2.8,0.6c1.1,0,2-0.2,2.8-0.7c0.8-0.5,1.4-1.2,1.8-2.1v1.2c0,0.5,0.1,0.8,0.4,1.1c0.3,0.3,0.7,0.4,1.1,0.4
		c0.5,0,0.9-0.1,1.2-0.4c0.3-0.3,0.4-0.6,0.4-1.1v-8.3c0-2.1-0.5-3.8-1.5-4.8C726.2,414.7,724.6,414.1,722.5,414.1 M703.7,427.9
		c-1.4,0-2.5-0.5-3.3-1.5c-0.8-1-1.2-2.4-1.2-4.1c0-1.8,0.4-3.1,1.2-4.1c0.8-1,1.9-1.4,3.3-1.4c1.4,0,2.5,0.5,3.3,1.5
		c0.8,1,1.1,2.3,1.1,4.1s-0.4,3.2-1.2,4.1C706.2,427.4,705.1,427.9,703.7,427.9 M709.7,407.4c-0.5,0-0.9,0.1-1.2,0.4
		c-0.3,0.3-0.4,0.6-0.4,1.1v8.2c-0.5-0.9-1.2-1.6-2-2.1c-0.9-0.5-1.9-0.8-3.1-0.8c-1.4,0-2.6,0.3-3.6,1c-1.1,0.7-1.9,1.6-2.5,2.8
		s-0.9,2.7-0.9,4.3c0,1.6,0.3,3,0.9,4.3c0.6,1.2,1.4,2.2,2.5,2.9c1.1,0.7,2.3,1,3.6,1c1.2,0,2.2-0.3,3.1-0.8
		c0.9-0.5,1.6-1.2,2.1-2.2v1.3c0,0.5,0.1,0.9,0.4,1.2c0.3,0.3,0.7,0.4,1.2,0.4c0.5,0,0.9-0.1,1.2-0.4c0.3-0.3,0.4-0.7,0.4-1.2v-19.9
		c0-0.5-0.2-0.8-0.5-1.1C710.6,407.5,710.2,407.4,709.7,407.4 M685.2,428.1c-0.8,0-1.5-0.2-2.1-0.7c-0.6-0.5-0.8-1.1-0.8-1.9
		c0-0.7,0.2-1.2,0.6-1.5c0.4-0.4,1-0.6,1.9-0.8c0.9-0.2,2.2-0.2,3.9-0.2h0.6v0.8c0,1.3-0.4,2.3-1.1,3.1
		C687.4,427.7,686.4,428.1,685.2,428.1 M686.2,414.1c-0.9,0-1.9,0.1-2.9,0.4s-1.9,0.6-2.6,1c-0.4,0.2-0.7,0.5-0.9,0.7
		c-0.2,0.2-0.3,0.5-0.3,0.9c0,0.4,0.1,0.7,0.3,0.9c0.2,0.2,0.5,0.4,0.8,0.4c0.2,0,0.6-0.2,1.2-0.5c0.8-0.4,1.5-0.6,2.2-0.8
		c0.7-0.2,1.4-0.3,2.1-0.3c1.1,0,1.9,0.3,2.4,0.8c0.5,0.5,0.7,1.4,0.7,2.6v0.9h-0.7c-2.4,0-4.3,0.1-5.6,0.4
		c-1.4,0.3-2.3,0.7-2.9,1.4c-0.6,0.7-0.9,1.6-0.9,2.7c0,0.9,0.2,1.8,0.7,2.5c0.5,0.8,1.2,1.3,2,1.8c0.9,0.4,1.8,0.6,2.8,0.6
		c1.1,0,2-0.2,2.8-0.7c0.8-0.5,1.4-1.2,1.8-2.1v1.2c0,0.5,0.1,0.8,0.4,1.1c0.3,0.3,0.7,0.4,1.1,0.4c0.5,0,0.9-0.1,1.2-0.4
		c0.3-0.3,0.4-0.6,0.4-1.1v-8.3c0-2.1-0.5-3.8-1.5-4.8C689.9,414.7,688.3,414.1,686.2,414.1 M669.5,414.1c-1.2,0-2.2,0.2-3.1,0.7
		c-0.9,0.5-1.6,1.2-2.2,2.2v-1.3c0-0.5-0.1-0.8-0.4-1.1c-0.3-0.3-0.7-0.4-1.1-0.4c-0.5,0-0.9,0.1-1.2,0.4c-0.3,0.3-0.5,0.7-0.5,1.1
		v13.1c0,0.5,0.1,0.8,0.5,1.1c0.3,0.3,0.7,0.4,1.2,0.4c0.5,0,0.9-0.1,1.2-0.4c0.3-0.3,0.4-0.7,0.4-1.1v-7.6c0-1.4,0.4-2.5,1.2-3.3
		c0.8-0.8,1.8-1.2,3.2-1.2c1.1,0,1.9,0.3,2.5,0.9c0.5,0.6,0.8,1.6,0.8,2.9v8.2c0,0.5,0.1,0.8,0.4,1.1c0.3,0.3,0.7,0.4,1.2,0.4
		c0.5,0,0.9-0.1,1.2-0.4c0.3-0.3,0.4-0.6,0.4-1.1v-8.4C675.2,416.3,673.3,414.1,669.5,414.1 M649.4,428.1c-0.8,0-1.5-0.2-2.1-0.7
		c-0.6-0.5-0.8-1.1-0.8-1.9c0-0.7,0.2-1.2,0.6-1.5c0.4-0.4,1-0.6,1.9-0.8c0.9-0.2,2.2-0.2,3.9-0.2h0.6v0.8c0,1.3-0.4,2.3-1.1,3.1
		C651.6,427.7,650.6,428.1,649.4,428.1 M650.4,414.1c-0.9,0-1.9,0.1-2.9,0.4c-1,0.2-1.9,0.6-2.6,1c-0.4,0.2-0.7,0.5-0.9,0.7
		c-0.2,0.2-0.3,0.5-0.3,0.9c0,0.4,0.1,0.7,0.3,0.9c0.2,0.2,0.5,0.4,0.8,0.4c0.2,0,0.6-0.2,1.2-0.5c0.8-0.4,1.5-0.6,2.2-0.8
		c0.7-0.2,1.4-0.3,2.1-0.3c1.1,0,1.9,0.3,2.4,0.8c0.5,0.5,0.7,1.4,0.7,2.6v0.9h-0.7c-2.4,0-4.3,0.1-5.6,0.4
		c-1.4,0.3-2.3,0.7-2.9,1.4c-0.6,0.7-0.9,1.6-0.9,2.7c0,0.9,0.2,1.8,0.7,2.5c0.5,0.8,1.2,1.3,2,1.8c0.9,0.4,1.8,0.6,2.8,0.6
		c1.1,0,2-0.2,2.8-0.7c0.8-0.5,1.4-1.2,1.8-2.1v1.2c0,0.5,0.1,0.8,0.4,1.1c0.3,0.3,0.7,0.4,1.1,0.4c0.5,0,0.9-0.1,1.2-0.4
		c0.3-0.3,0.4-0.6,0.4-1.1v-8.3c0-2.1-0.5-3.8-1.5-4.8C654.1,414.7,652.5,414.1,650.4,414.1 M632.6,430.5c1.4,0,2.8-0.2,4-0.7
		s2.4-1.1,3.3-1.9c0.4-0.3,0.6-0.8,0.6-1.3c0-0.4-0.1-0.7-0.3-1c-0.2-0.3-0.5-0.4-0.8-0.4c-0.3,0-0.6,0.1-1.1,0.4
		c-1.1,0.8-2,1.3-2.9,1.6c-0.8,0.3-1.8,0.5-2.8,0.5c-2.4,0-4.2-0.8-5.4-2.3c-1.3-1.5-1.9-3.7-1.9-6.6c0-2.9,0.6-5.1,1.9-6.6
		s3.1-2.3,5.4-2.3c1.1,0,2,0.2,2.9,0.5c0.8,0.3,1.8,0.9,2.8,1.6c0.3,0.3,0.7,0.4,1.1,0.4c0.3,0,0.6-0.1,0.8-0.4
		c0.2-0.3,0.3-0.6,0.3-1c0-0.5-0.2-1-0.6-1.3c-0.9-0.8-2.1-1.5-3.3-1.9c-1.3-0.4-2.6-0.7-4-0.7c-2.2,0-4.1,0.5-5.7,1.4
		c-1.6,0.9-2.8,2.3-3.7,4c-0.9,1.8-1.3,3.8-1.3,6.2c0,2.4,0.4,4.5,1.3,6.2c0.9,1.8,2.1,3.1,3.7,4S630.4,430.5,632.6,430.5
		 M603.7,430.5c2,0,3.5-0.4,4.7-1.3s1.8-2,1.8-3.4c0-0.9-0.2-1.6-0.5-2.2c-0.4-0.6-0.9-1-1.8-1.4c-0.8-0.4-1.9-0.7-3.4-1
		c-1.4-0.3-2.3-0.6-2.9-0.9c-0.5-0.3-0.8-0.8-0.8-1.4c0-0.7,0.3-1.2,0.8-1.6c0.5-0.4,1.3-0.6,2.2-0.6c0.8,0,1.4,0.1,1.9,0.3
		c0.5,0.2,1,0.5,1.6,0.8c0.3,0.2,0.6,0.3,0.8,0.4c0.2,0.1,0.4,0.1,0.6,0.1c0.3,0,0.5-0.1,0.7-0.4c0.2-0.2,0.3-0.5,0.3-0.9
		c0-0.6-0.4-1.2-1.1-1.6c-0.6-0.4-1.3-0.8-2.2-1c-0.8-0.2-1.7-0.3-2.5-0.3c-1.2,0-2.3,0.2-3.2,0.6c-0.9,0.4-1.7,1-2.2,1.7
		c-0.5,0.7-0.8,1.6-0.8,2.5c0,1.2,0.4,2.2,1.2,2.9c0.8,0.7,2.2,1.3,4.1,1.7c1.1,0.2,1.9,0.5,2.5,0.7c0.6,0.2,1,0.4,1.2,0.7
		c0.2,0.3,0.3,0.6,0.3,1c0,0.7-0.3,1.2-0.9,1.5c-0.6,0.4-1.4,0.5-2.4,0.5c-0.9,0-1.7-0.1-2.3-0.3c-0.6-0.2-1.2-0.5-1.9-0.8
		c-0.6-0.3-1-0.5-1.3-0.5c-0.3,0-0.5,0.1-0.7,0.4c-0.2,0.2-0.3,0.5-0.3,0.9c0,0.3,0.1,0.6,0.2,0.9c0.2,0.3,0.4,0.5,0.8,0.7
		C599.8,430,601.6,430.5,603.7,430.5 M587.9,416.5c1.2,0,2.2,0.4,2.9,1.2c0.7,0.8,1,1.9,1.1,3.4h-8.3c0.1-1.4,0.6-2.6,1.4-3.4
		C585.7,416.9,586.7,416.5,587.9,416.5 M593.5,426.3c-0.2,0-0.4,0.1-0.7,0.2s-0.5,0.2-0.5,0.3c-0.6,0.3-1.3,0.6-1.8,0.8
		c-0.6,0.2-1.3,0.3-2.1,0.3c-3,0-4.6-1.7-4.8-5h10c0.8,0,1.2-0.4,1.2-1.3c0-2.3-0.6-4.1-1.8-5.5c-1.2-1.4-2.9-2-5-2
		c-1.5,0-2.8,0.3-3.9,1c-1.1,0.7-2,1.7-2.7,2.9c-0.6,1.2-1,2.7-1,4.3c0,2.5,0.7,4.5,2.2,5.9c1.4,1.5,3.4,2.2,5.9,2.2
		c0.8,0,1.7-0.1,2.6-0.4c0.9-0.2,1.7-0.6,2.5-1c0.8-0.4,1.2-1,1.2-1.6c0-0.4-0.1-0.7-0.3-0.9C594.1,426.4,593.8,426.3,593.5,426.3
		 M572.4,430.5c0.9,0,1.8-0.1,2.6-0.4c0.9-0.2,1.6-0.6,2.3-1c0.4-0.3,0.7-0.5,0.8-0.8c0.2-0.2,0.2-0.5,0.2-0.8
		c0-0.4-0.1-0.7-0.3-0.9c-0.2-0.2-0.4-0.4-0.7-0.4c-0.2,0-0.4,0.1-0.6,0.2c-0.2,0.1-0.5,0.2-0.7,0.4c-0.5,0.3-1,0.6-1.5,0.8
		c-0.5,0.2-1.1,0.3-1.7,0.3c-1.5,0-2.6-0.5-3.4-1.4c-0.8-1-1.2-2.3-1.2-4.1s0.4-3.1,1.2-4.1c0.8-1,1.9-1.5,3.4-1.5
		c0.6,0,1.2,0.1,1.7,0.3c0.5,0.2,1,0.4,1.5,0.8c0.3,0.2,0.5,0.3,0.7,0.4c0.2,0.1,0.4,0.1,0.6,0.1c0.3,0,0.5-0.1,0.7-0.4
		c0.2-0.2,0.3-0.6,0.3-0.9c0-0.6-0.3-1.2-1-1.6c-0.6-0.4-1.4-0.7-2.2-1c-0.8-0.2-1.6-0.4-2.5-0.4c-1.5,0-2.9,0.3-4.1,1
		c-1.2,0.7-2.1,1.7-2.8,2.9c-0.7,1.2-1,2.7-1,4.3c0,1.6,0.3,3,1,4.3c0.6,1.2,1.5,2.2,2.7,2.8C569.5,430.1,570.9,430.5,572.4,430.5
		 M562.4,414.2l-0.5,0c-1,0.1-2,0.4-2.8,0.9c-0.8,0.5-1.4,1.2-1.9,2.2v-1.5c0-0.5-0.1-0.8-0.4-1.1c-0.3-0.3-0.7-0.4-1.1-0.4
		c-0.5,0-0.9,0.1-1.2,0.4c-0.3,0.3-0.5,0.7-0.5,1.1v13.1c0,0.5,0.2,0.9,0.5,1.2c0.3,0.3,0.7,0.4,1.2,0.4c0.5,0,0.9-0.1,1.2-0.4
		c0.3-0.3,0.5-0.6,0.5-1.2v-7.4c0-1.2,0.3-2.1,1-3c0.7-0.8,1.7-1.3,3-1.4l1-0.1c0.6,0,1-0.2,1.2-0.4c0.2-0.2,0.4-0.6,0.4-1.1
		C564,414.6,563.5,414.1,562.4,414.2 M548,414.2c-0.5,0-0.9,0.1-1.2,0.4c-0.3,0.3-0.5,0.7-0.5,1.1v7.6c0,1.4-0.4,2.4-1.1,3.3
		c-0.8,0.8-1.8,1.2-3,1.2c-1.1,0-1.9-0.3-2.4-0.9c-0.5-0.6-0.8-1.5-0.8-2.8v-8.3c0-0.5-0.1-0.9-0.4-1.2c-0.3-0.3-0.7-0.4-1.2-0.4
		c-0.5,0-0.9,0.1-1.2,0.4c-0.3,0.3-0.4,0.7-0.4,1.2v8.4c0,4.2,1.9,6.3,5.7,6.3c1.1,0,2-0.2,2.9-0.7s1.6-1.2,2-2.1v1.2
		c0,0.5,0.1,0.8,0.4,1.1c0.3,0.3,0.6,0.4,1.1,0.4c0.5,0,0.9-0.1,1.2-0.4c0.3-0.3,0.5-0.6,0.5-1.1v-13.1c0-0.5-0.1-0.9-0.4-1.2
		C548.9,414.3,548.5,414.2,548,414.2 M524.5,427.9c-1.4,0-2.5-0.5-3.3-1.4c-0.8-0.9-1.1-2.3-1.1-4.2c0-1.8,0.4-3.2,1.2-4.1
		c0.8-1,1.9-1.4,3.3-1.4c1.4,0,2.5,0.5,3.3,1.4c0.8,1,1.2,2.3,1.2,4.1c0,1.8-0.4,3.2-1.1,4.2C527,427.4,525.9,427.9,524.5,427.9
		 M524.5,430.5c1.5,0,2.9-0.3,4.1-1c1.2-0.7,2.1-1.6,2.7-2.9c0.6-1.2,1-2.7,1-4.3c0-1.7-0.3-3.1-1-4.3c-0.6-1.2-1.5-2.2-2.7-2.9
		c-1.2-0.7-2.5-1-4.1-1c-1.5,0-2.9,0.3-4.1,1c-1.2,0.7-2.1,1.6-2.7,2.9c-0.6,1.2-1,2.7-1,4.3c0,1.6,0.3,3.1,1,4.3s1.5,2.2,2.7,2.9
		C521.6,430.1,522.9,430.5,524.5,430.5 M507.6,430.5c2,0,3.5-0.4,4.7-1.3s1.8-2,1.8-3.4c0-0.9-0.2-1.6-0.5-2.2
		c-0.4-0.6-0.9-1-1.8-1.4c-0.8-0.4-1.9-0.7-3.4-1c-1.4-0.3-2.3-0.6-2.9-0.9c-0.5-0.3-0.8-0.8-0.8-1.4c0-0.7,0.3-1.2,0.8-1.6
		c0.5-0.4,1.3-0.6,2.2-0.6c0.8,0,1.4,0.1,1.9,0.3c0.5,0.2,1,0.5,1.6,0.8c0.3,0.2,0.6,0.3,0.8,0.4c0.2,0.1,0.4,0.1,0.6,0.1
		c0.3,0,0.5-0.1,0.7-0.4c0.2-0.2,0.3-0.5,0.3-0.9c0-0.6-0.4-1.2-1.1-1.6c-0.6-0.4-1.3-0.8-2.2-1c-0.8-0.2-1.7-0.3-2.5-0.3
		c-1.2,0-2.3,0.2-3.2,0.6c-0.9,0.4-1.7,1-2.2,1.7c-0.5,0.7-0.8,1.6-0.8,2.5c0,1.2,0.4,2.2,1.2,2.9c0.8,0.7,2.2,1.3,4.1,1.7
		c1.1,0.2,1.9,0.5,2.5,0.7c0.6,0.2,1,0.4,1.2,0.7c0.2,0.3,0.3,0.6,0.3,1c0,0.7-0.3,1.2-0.9,1.5c-0.6,0.4-1.4,0.5-2.4,0.5
		c-0.9,0-1.7-0.1-2.3-0.3c-0.6-0.2-1.2-0.5-1.9-0.8c-0.6-0.3-1-0.5-1.3-0.5c-0.3,0-0.5,0.1-0.7,0.4c-0.2,0.2-0.3,0.5-0.3,0.9
		c0,0.3,0.1,0.6,0.2,0.9c0.2,0.3,0.4,0.5,0.8,0.7C503.6,430,505.4,430.5,507.6,430.5 M491.8,416.5c1.2,0,2.2,0.4,2.9,1.2
		c0.7,0.8,1,1.9,1.1,3.4h-8.3c0.1-1.4,0.6-2.6,1.4-3.4C489.5,416.9,490.5,416.5,491.8,416.5 M497.4,426.3c-0.2,0-0.4,0.1-0.7,0.2
		c-0.3,0.1-0.5,0.2-0.5,0.3c-0.6,0.3-1.3,0.6-1.8,0.8c-0.6,0.2-1.3,0.3-2.1,0.3c-3,0-4.6-1.7-4.8-5h10c0.8,0,1.2-0.4,1.2-1.3
		c0-2.3-0.6-4.1-1.8-5.5c-1.2-1.4-2.9-2-5-2c-1.5,0-2.8,0.3-3.9,1c-1.2,0.7-2,1.7-2.7,2.9c-0.6,1.2-1,2.7-1,4.3
		c0,2.5,0.7,4.5,2.2,5.9c1.4,1.5,3.4,2.2,5.9,2.2c0.8,0,1.7-0.1,2.6-0.4c0.9-0.2,1.7-0.6,2.5-1c0.8-0.4,1.2-1,1.2-1.6
		c0-0.4-0.1-0.7-0.3-0.9C497.9,426.4,497.7,426.3,497.4,426.3 M466.5,418.2v-8h6c1.7,0,2.9,0.3,3.7,1c0.8,0.6,1.2,1.6,1.2,3
		c0,1.4-0.4,2.4-1.2,3c-0.8,0.7-2,1-3.7,1H466.5z M480.9,428.2l-3.3-5.2c-0.4-0.7-0.9-1.2-1.3-1.6c-0.5-0.4-1-0.7-1.5-0.8
		c1.9-0.3,3.3-1,4.3-2.1c1-1.1,1.5-2.6,1.5-4.3c0-2.1-0.7-3.8-2-4.9c-1.3-1.1-3.2-1.7-5.8-1.7h-8c-0.5,0-0.9,0.1-1.2,0.4
		c-0.3,0.3-0.4,0.7-0.4,1.2v19.6c0,0.5,0.1,0.9,0.5,1.2s0.7,0.5,1.2,0.5c0.5,0,0.9-0.1,1.2-0.5s0.4-0.7,0.4-1.2v-7.9h3.6
		c0.9,0,1.6,0.2,2.2,0.5c0.6,0.3,1.1,0.9,1.6,1.6l4.3,6.7c0.4,0.5,0.8,0.8,1.5,0.8c0.4,0,0.8-0.1,1.1-0.4c0.3-0.3,0.5-0.6,0.5-1
		C481.2,428.8,481.1,428.5,480.9,428.2 M444.3,430.5c2,0,3.5-0.4,4.7-1.3c1.2-0.8,1.8-2,1.8-3.4c0-0.9-0.2-1.6-0.5-2.2
		c-0.4-0.6-0.9-1-1.8-1.4c-0.8-0.4-1.9-0.7-3.4-1c-1.4-0.3-2.3-0.6-2.9-0.9c-0.5-0.3-0.8-0.8-0.8-1.4c0-0.7,0.3-1.2,0.8-1.6
		c0.5-0.4,1.3-0.6,2.2-0.6c0.8,0,1.4,0.1,1.9,0.3c0.5,0.2,1,0.5,1.6,0.8c0.3,0.2,0.6,0.3,0.8,0.4c0.2,0.1,0.4,0.1,0.6,0.1
		c0.3,0,0.5-0.1,0.7-0.4c0.2-0.2,0.3-0.5,0.3-0.9c0-0.6-0.4-1.2-1.1-1.6c-0.6-0.4-1.3-0.8-2.2-1c-0.8-0.2-1.7-0.3-2.5-0.3
		c-1.2,0-2.3,0.2-3.2,0.6c-0.9,0.4-1.7,1-2.2,1.7c-0.5,0.7-0.8,1.6-0.8,2.5c0,1.2,0.4,2.2,1.2,2.9c0.8,0.7,2.2,1.3,4.1,1.7
		c1.1,0.2,1.9,0.5,2.5,0.7c0.6,0.2,1,0.4,1.2,0.7c0.2,0.3,0.3,0.6,0.3,1c0,0.7-0.3,1.2-0.9,1.5c-0.6,0.4-1.4,0.5-2.4,0.5
		c-0.9,0-1.7-0.1-2.3-0.3c-0.6-0.2-1.2-0.5-1.9-0.8c-0.6-0.3-1-0.5-1.3-0.5c-0.3,0-0.5,0.1-0.7,0.4c-0.2,0.2-0.3,0.5-0.3,0.9
		c0,0.3,0.1,0.6,0.2,0.9c0.2,0.3,0.4,0.5,0.8,0.7C440.3,430,442.1,430.5,444.3,430.5 M432.6,414.2c-0.5,0-0.9,0.1-1.2,0.4
		s-0.5,0.7-0.5,1.1v7.6c0,1.4-0.4,2.4-1.1,3.3c-0.8,0.8-1.8,1.2-3,1.2c-1.1,0-1.9-0.3-2.4-0.9c-0.5-0.6-0.8-1.5-0.8-2.8v-8.3
		c0-0.5-0.1-0.9-0.4-1.2c-0.3-0.3-0.7-0.4-1.2-0.4c-0.5,0-0.9,0.1-1.2,0.4c-0.3,0.3-0.4,0.7-0.4,1.2v8.4c0,4.2,1.9,6.3,5.7,6.3
		c1.1,0,2-0.2,2.9-0.7s1.6-1.2,2-2.1v1.2c0,0.5,0.1,0.8,0.4,1.1c0.3,0.3,0.6,0.4,1.1,0.4c0.5,0,0.9-0.1,1.2-0.4
		c0.3-0.3,0.5-0.6,0.5-1.1v-13.1c0-0.5-0.1-0.9-0.4-1.2C433.5,414.3,433.1,414.2,432.6,414.2 M409.1,427.9c-1.4,0-2.5-0.5-3.3-1.4
		c-0.8-0.9-1.1-2.3-1.1-4.2c0-1.8,0.4-3.2,1.2-4.1c0.8-1,1.9-1.4,3.3-1.4c1.4,0,2.5,0.5,3.3,1.4c0.8,1,1.2,2.3,1.2,4.1
		c0,1.8-0.4,3.2-1.1,4.2C411.6,427.4,410.5,427.9,409.1,427.9 M409.1,430.5c1.5,0,2.9-0.3,4.1-1c1.2-0.7,2.1-1.6,2.7-2.9
		c0.6-1.2,1-2.7,1-4.3c0-1.7-0.3-3.1-1-4.3c-0.6-1.2-1.5-2.2-2.7-2.9c-1.2-0.7-2.5-1-4.1-1c-1.5,0-2.9,0.3-4.1,1
		c-1.2,0.7-2.1,1.6-2.7,2.9c-0.6,1.2-1,2.7-1,4.3c0,1.6,0.3,3.1,1,4.3s1.5,2.2,2.7,2.9C406.2,430.1,407.5,430.5,409.1,430.5
		 M392.2,414.1c-1.2,0-2.2,0.2-3.1,0.7c-0.9,0.5-1.6,1.2-2.2,2.2v-1.3c0-0.5-0.1-0.8-0.4-1.1c-0.3-0.3-0.7-0.4-1.1-0.4
		c-0.5,0-0.9,0.1-1.2,0.4c-0.3,0.3-0.5,0.7-0.5,1.1v13.1c0,0.5,0.1,0.8,0.5,1.1c0.3,0.3,0.7,0.4,1.2,0.4c0.5,0,0.9-0.1,1.2-0.4
		c0.3-0.3,0.4-0.7,0.4-1.1v-7.6c0-1.4,0.4-2.5,1.2-3.3c0.8-0.8,1.8-1.2,3.2-1.2c1.1,0,1.9,0.3,2.5,0.9c0.5,0.6,0.8,1.6,0.8,2.9v8.2
		c0,0.5,0.1,0.8,0.4,1.1c0.3,0.3,0.7,0.4,1.2,0.4c0.5,0,0.9-0.1,1.2-0.4c0.3-0.3,0.4-0.6,0.4-1.1v-8.4
		C397.8,416.3,395.9,414.1,392.2,414.1 M373.3,416.5c1.2,0,2.2,0.4,2.9,1.2c0.7,0.8,1,1.9,1.1,3.4H369c0.1-1.4,0.6-2.6,1.4-3.4
		C371.1,416.9,372.1,416.5,373.3,416.5 M378.9,426.3c-0.2,0-0.4,0.1-0.7,0.2c-0.3,0.1-0.5,0.2-0.5,0.3c-0.6,0.3-1.3,0.6-1.8,0.8
		c-0.6,0.2-1.3,0.3-2.1,0.3c-3,0-4.6-1.7-4.8-5h10c0.8,0,1.2-0.4,1.2-1.3c0-2.3-0.6-4.1-1.8-5.5s-2.9-2-5-2c-1.5,0-2.8,0.3-3.9,1
		c-1.1,0.7-2,1.7-2.7,2.9c-0.6,1.2-1,2.7-1,4.3c0,2.5,0.7,4.5,2.2,5.9c1.4,1.5,3.4,2.2,5.9,2.2c0.8,0,1.7-0.1,2.6-0.4
		c0.9-0.2,1.7-0.6,2.5-1c0.8-0.4,1.2-1,1.2-1.6c0-0.4-0.1-0.7-0.3-0.9C379.5,426.4,379.2,426.3,378.9,426.3 M354.4,427.2
		c-1.4,0-2.5-0.5-3.3-1.4c-0.8-0.9-1.2-2.2-1.2-3.8s0.4-2.9,1.2-3.8c0.8-0.9,1.9-1.4,3.3-1.4s2.5,0.5,3.3,1.4
		c0.8,0.9,1.2,2.2,1.2,3.8c0,1.6-0.4,2.9-1.2,3.8C356.9,426.7,355.8,427.2,354.4,427.2 M360.5,414.2c-0.5,0-0.9,0.1-1.2,0.4
		c-0.3,0.3-0.4,0.7-0.4,1.1v1.4c-0.5-0.9-1.2-1.7-2.1-2.2c-0.9-0.5-2-0.8-3.2-0.8c-1.4,0-2.6,0.3-3.7,1c-1.1,0.7-1.9,1.6-2.5,2.8
		c-0.6,1.2-0.9,2.5-0.9,4.1s0.3,2.9,0.9,4.1s1.4,2.1,2.5,2.7c1.1,0.6,2.3,1,3.7,1c1.2,0,2.3-0.3,3.2-0.8c0.9-0.5,1.6-1.3,2.1-2.2
		v2.5c0,3-1.5,4.5-4.4,4.5c-0.9,0-1.7-0.1-2.4-0.3c-0.7-0.2-1.4-0.5-2.2-0.9c-0.6-0.3-1-0.5-1.3-0.5c-0.3,0-0.6,0.1-0.8,0.4
		c-0.2,0.2-0.3,0.5-0.3,0.9c0,0.6,0.4,1.2,1.2,1.6c1.5,0.9,3.5,1.3,5.8,1.3c2.5,0,4.4-0.6,5.7-1.8c1.3-1.2,1.9-3,1.9-5.4v-13.2
		c0-0.5-0.1-0.9-0.4-1.1C361.4,414.3,361,414.2,360.5,414.2 M341.3,411c0.6,0,1.1-0.2,1.5-0.5c0.4-0.3,0.5-0.8,0.5-1.4
		c0-0.6-0.2-1-0.6-1.3c-0.4-0.3-0.9-0.5-1.5-0.5c-0.6,0-1.1,0.2-1.5,0.5c-0.4,0.3-0.5,0.8-0.5,1.3c0,0.6,0.2,1,0.5,1.4
		C340.2,410.9,340.7,411,341.3,411 M341.3,430.4c0.5,0,0.9-0.1,1.2-0.4c0.3-0.3,0.5-0.6,0.5-1.2v-13.1c0-0.5-0.2-0.9-0.5-1.2
		c-0.3-0.3-0.7-0.4-1.2-0.4c-0.5,0-0.9,0.1-1.2,0.4c-0.3,0.3-0.5,0.7-0.5,1.2v13.1c0,0.5,0.2,0.9,0.5,1.2
		C340.4,430.3,340.8,430.4,341.3,430.4 M327.5,427.9c-1.4,0-2.5-0.5-3.3-1.5c-0.8-1-1.2-2.4-1.2-4.1c0-1.8,0.4-3.1,1.2-4.1
		c0.8-1,1.9-1.4,3.3-1.4c1.4,0,2.5,0.5,3.3,1.5c0.8,1,1.1,2.3,1.1,4.1s-0.4,3.2-1.2,4.1C330,427.4,328.9,427.9,327.5,427.9
		 M333.5,407.4c-0.5,0-0.9,0.1-1.2,0.4c-0.3,0.3-0.4,0.6-0.4,1.1v8.2c-0.5-0.9-1.2-1.6-2-2.1s-1.9-0.8-3.1-0.8c-1.4,0-2.6,0.3-3.6,1
		c-1.1,0.7-1.9,1.6-2.5,2.8c-0.6,1.2-0.9,2.7-0.9,4.3c0,1.6,0.3,3,0.9,4.3c0.6,1.2,1.4,2.2,2.5,2.9c1.1,0.7,2.3,1,3.6,1
		c1.2,0,2.2-0.3,3.1-0.8c0.9-0.5,1.6-1.2,2.1-2.2v1.3c0,0.5,0.1,0.9,0.4,1.2c0.3,0.3,0.7,0.4,1.2,0.4c0.5,0,0.9-0.1,1.2-0.4
		c0.3-0.3,0.4-0.7,0.4-1.2v-19.9c0-0.5-0.2-0.8-0.5-1.1C334.4,407.5,334,407.4,333.5,407.4 M310.5,414.1c-1.2,0-2.2,0.2-3.1,0.7
		c-0.9,0.5-1.6,1.2-2.2,2.2v-1.3c0-0.5-0.1-0.8-0.4-1.1c-0.3-0.3-0.7-0.4-1.1-0.4s-0.9,0.1-1.2,0.4c-0.3,0.3-0.5,0.7-0.5,1.1v13.1
		c0,0.5,0.2,0.8,0.5,1.1c0.3,0.3,0.7,0.4,1.2,0.4s0.9-0.1,1.2-0.4c0.3-0.3,0.4-0.7,0.4-1.1v-7.6c0-1.4,0.4-2.5,1.2-3.3
		c0.8-0.8,1.8-1.2,3.2-1.2c1.1,0,1.9,0.3,2.5,0.9c0.5,0.6,0.8,1.6,0.8,2.9v8.2c0,0.5,0.1,0.8,0.4,1.1c0.3,0.3,0.7,0.4,1.2,0.4
		c0.5,0,0.9-0.1,1.2-0.4c0.3-0.3,0.4-0.6,0.4-1.1v-8.4C316.2,416.3,314.3,414.1,310.5,414.1 M295.5,430.4c0.5,0,1-0.1,1.2-0.5
		c0.3-0.3,0.4-0.7,0.4-1.2V409c0-0.5-0.2-0.9-0.5-1.2c-0.3-0.3-0.7-0.5-1.2-0.5c-0.5,0-0.9,0.2-1.2,0.5c-0.3,0.3-0.5,0.7-0.5,1.2
		v19.7c0,0.5,0.2,0.9,0.5,1.2C294.6,430.3,295,430.4,295.5,430.4 M272.7,427.2c-1.4,0-2.5-0.5-3.3-1.4c-0.8-0.9-1.2-2.2-1.2-3.8
		s0.4-2.9,1.2-3.8c0.8-0.9,1.9-1.4,3.3-1.4s2.5,0.5,3.3,1.4c0.8,0.9,1.2,2.2,1.2,3.8c0,1.6-0.4,2.9-1.2,3.8
		C275.2,426.7,274.1,427.2,272.7,427.2 M278.8,414.2c-0.5,0-0.9,0.1-1.2,0.4c-0.3,0.3-0.4,0.7-0.4,1.1v1.4c-0.5-0.9-1.2-1.7-2.1-2.2
		c-0.9-0.5-2-0.8-3.2-0.8c-1.4,0-2.6,0.3-3.7,1c-1.1,0.7-1.9,1.6-2.5,2.8c-0.6,1.2-0.9,2.5-0.9,4.1s0.3,2.9,0.9,4.1
		c0.6,1.2,1.4,2.1,2.5,2.7c1.1,0.6,2.3,1,3.7,1c1.2,0,2.3-0.3,3.2-0.8c0.9-0.5,1.6-1.3,2.1-2.2v2.5c0,3-1.5,4.5-4.4,4.5
		c-0.9,0-1.7-0.1-2.4-0.3c-0.7-0.2-1.4-0.5-2.2-0.9c-0.6-0.3-1-0.5-1.3-0.5c-0.3,0-0.6,0.1-0.8,0.4c-0.2,0.2-0.3,0.5-0.3,0.9
		c0,0.6,0.4,1.2,1.2,1.6c1.5,0.9,3.5,1.3,5.8,1.3c2.5,0,4.4-0.6,5.7-1.8c1.3-1.2,1.9-3,1.9-5.4v-13.2c0-0.5-0.1-0.9-0.4-1.1
		C279.7,414.3,279.3,414.2,278.8,414.2 M255.7,414.1c-1.2,0-2.2,0.2-3.1,0.7c-0.9,0.5-1.6,1.2-2.2,2.2v-1.3c0-0.5-0.1-0.8-0.4-1.1
		c-0.3-0.3-0.7-0.4-1.1-0.4c-0.5,0-0.9,0.1-1.2,0.4c-0.3,0.3-0.5,0.7-0.5,1.1v13.1c0,0.5,0.2,0.8,0.5,1.1c0.3,0.3,0.7,0.4,1.2,0.4
		s0.9-0.1,1.2-0.4c0.3-0.3,0.4-0.7,0.4-1.1v-7.6c0-1.4,0.4-2.5,1.2-3.3c0.8-0.8,1.8-1.2,3.2-1.2c1.1,0,1.9,0.3,2.5,0.9
		c0.5,0.6,0.8,1.6,0.8,2.9v8.2c0,0.5,0.1,0.8,0.4,1.1c0.3,0.3,0.7,0.4,1.2,0.4c0.5,0,0.9-0.1,1.2-0.4c0.3-0.3,0.4-0.6,0.4-1.1v-8.4
		C261.3,416.3,259.4,414.1,255.7,414.1 M241,411c0.6,0,1.1-0.2,1.5-0.5c0.4-0.3,0.5-0.8,0.5-1.4c0-0.6-0.2-1-0.6-1.3
		c-0.4-0.3-0.9-0.5-1.5-0.5c-0.6,0-1.1,0.2-1.5,0.5c-0.4,0.3-0.5,0.8-0.5,1.3c0,0.6,0.2,1,0.5,1.4C239.9,410.9,240.4,411,241,411
		 M241,430.4c0.5,0,0.9-0.1,1.2-0.4c0.3-0.3,0.5-0.6,0.5-1.2v-13.1c0-0.5-0.2-0.9-0.5-1.2c-0.3-0.3-0.7-0.4-1.2-0.4
		c-0.5,0-0.9,0.1-1.2,0.4c-0.3,0.3-0.5,0.7-0.5,1.2v13.1c0,0.5,0.2,0.9,0.5,1.2C240.2,430.3,240.6,430.4,241,430.4 M235.7,427.9
		l-0.9-0.1c-0.9-0.1-1.5-0.3-1.9-0.8c-0.4-0.5-0.6-1.2-0.6-2.2V417h3.2c0.5,0,0.8-0.1,1-0.3s0.4-0.5,0.4-0.9c0-0.4-0.1-0.7-0.4-0.9
		c-0.2-0.2-0.6-0.3-1-0.3h-3.2v-3.3c0-0.5-0.2-0.9-0.5-1.2c-0.3-0.3-0.7-0.4-1.2-0.4c-0.5,0-0.9,0.1-1.2,0.4
		c-0.3,0.3-0.4,0.7-0.4,1.2v3.3h-1.9c-0.5,0-0.8,0.1-1,0.3c-0.2,0.2-0.4,0.5-0.4,0.9c0,0.8,0.5,1.3,1.4,1.3h1.9v7.6
		c0,1.8,0.4,3.2,1.3,4.1c0.9,0.9,2.2,1.5,3.9,1.6l0.9,0.1c0.6,0,1.1,0,1.5-0.3c0.3-0.2,0.5-0.6,0.5-1c0-0.4-0.1-0.6-0.3-0.9
		C236.5,428.1,236.2,428,235.7,427.9 M219.1,430.5c0.9,0,1.8-0.1,2.6-0.4c0.9-0.2,1.6-0.6,2.3-1c0.4-0.3,0.7-0.5,0.8-0.8
		c0.2-0.2,0.2-0.5,0.2-0.8c0-0.4-0.1-0.7-0.3-0.9c-0.2-0.2-0.4-0.4-0.7-0.4c-0.2,0-0.4,0.1-0.6,0.2c-0.2,0.1-0.5,0.2-0.7,0.4
		c-0.5,0.3-1,0.6-1.5,0.8c-0.5,0.2-1.1,0.3-1.7,0.3c-1.5,0-2.6-0.5-3.4-1.4c-0.8-1-1.2-2.3-1.2-4.1s0.4-3.1,1.2-4.1
		c0.8-1,1.9-1.5,3.4-1.5c0.6,0,1.2,0.1,1.7,0.3c0.5,0.2,1,0.4,1.5,0.8c0.3,0.2,0.5,0.3,0.7,0.4c0.2,0.1,0.4,0.1,0.6,0.1
		c0.3,0,0.5-0.1,0.7-0.4c0.2-0.2,0.3-0.6,0.3-0.9c0-0.6-0.3-1.2-1-1.6c-0.6-0.4-1.4-0.7-2.2-1c-0.8-0.2-1.7-0.4-2.5-0.4
		c-1.5,0-2.9,0.3-4.1,1c-1.2,0.7-2.1,1.7-2.8,2.9c-0.7,1.2-1,2.7-1,4.3c0,1.6,0.3,3,1,4.3c0.6,1.2,1.5,2.2,2.7,2.8
		C216.2,430.1,217.6,430.5,219.1,430.5 M202,416.5c1.2,0,2.2,0.4,2.9,1.2c0.7,0.8,1,1.9,1.1,3.4h-8.3c0.1-1.4,0.6-2.6,1.4-3.4
		C199.8,416.9,200.8,416.5,202,416.5 M207.6,426.3c-0.2,0-0.4,0.1-0.7,0.2c-0.3,0.1-0.5,0.2-0.5,0.3c-0.6,0.3-1.3,0.6-1.8,0.8
		c-0.6,0.2-1.3,0.3-2.1,0.3c-3,0-4.6-1.7-4.8-5h10c0.8,0,1.2-0.4,1.2-1.3c0-2.3-0.6-4.1-1.8-5.5s-2.9-2-5-2c-1.5,0-2.8,0.3-3.9,1
		c-1.1,0.7-2,1.7-2.7,2.9c-0.6,1.2-1,2.7-1,4.3c0,2.5,0.7,4.5,2.2,5.9c1.4,1.5,3.4,2.2,5.9,2.2c0.8,0,1.7-0.1,2.6-0.4
		c0.9-0.2,1.7-0.6,2.5-1c0.8-0.4,1.2-1,1.2-1.6c0-0.4-0.1-0.7-0.3-0.9C208.2,426.4,207.9,426.3,207.6,426.3 M185.2,414.1
		c-1.2,0-2.2,0.2-3.1,0.7c-0.9,0.5-1.6,1.2-2.2,2.2v-1.3c0-0.5-0.1-0.8-0.4-1.1c-0.3-0.3-0.7-0.4-1.1-0.4c-0.5,0-0.9,0.1-1.2,0.4
		c-0.3,0.3-0.5,0.7-0.5,1.1v13.1c0,0.5,0.2,0.8,0.5,1.1c0.3,0.3,0.7,0.4,1.2,0.4c0.5,0,0.9-0.1,1.2-0.4c0.3-0.3,0.4-0.7,0.4-1.1
		v-7.6c0-1.4,0.4-2.5,1.2-3.3c0.8-0.8,1.8-1.2,3.2-1.2c1.1,0,1.9,0.3,2.5,0.9c0.5,0.6,0.8,1.6,0.8,2.9v8.2c0,0.5,0.1,0.8,0.4,1.1
		c0.3,0.3,0.7,0.4,1.2,0.4c0.5,0,0.9-0.1,1.2-0.4c0.3-0.3,0.4-0.6,0.4-1.1v-8.4C190.9,416.3,189,414.1,185.2,414.1 M166.7,414.1
		c-1.2,0-2.2,0.2-3.1,0.7c-0.9,0.5-1.6,1.2-2.2,2.2v-1.3c0-0.5-0.1-0.8-0.4-1.1c-0.3-0.3-0.7-0.4-1.1-0.4c-0.5,0-0.9,0.1-1.2,0.4
		c-0.3,0.3-0.5,0.7-0.5,1.1v13.1c0,0.5,0.1,0.8,0.5,1.1c0.3,0.3,0.7,0.4,1.2,0.4c0.5,0,0.9-0.1,1.2-0.4c0.3-0.3,0.4-0.7,0.4-1.1
		v-7.6c0-1.4,0.4-2.5,1.2-3.3c0.8-0.8,1.8-1.2,3.2-1.2c1.1,0,1.9,0.3,2.5,0.9c0.5,0.6,0.8,1.6,0.8,2.9v8.2c0,0.5,0.1,0.8,0.4,1.1
		c0.3,0.3,0.7,0.4,1.2,0.4c0.5,0,0.9-0.1,1.2-0.4c0.3-0.3,0.4-0.6,0.4-1.1v-8.4C172.3,416.3,170.4,414.1,166.7,414.1 M146.8,427.9
		c-1.4,0-2.5-0.5-3.3-1.4c-0.8-0.9-1.1-2.3-1.1-4.2c0-1.8,0.4-3.2,1.2-4.1c0.8-1,1.9-1.4,3.3-1.4c1.4,0,2.5,0.5,3.3,1.4
		c0.8,1,1.2,2.3,1.2,4.1c0,1.8-0.4,3.2-1.1,4.2C149.4,427.4,148.3,427.9,146.8,427.9 M146.8,430.5c1.5,0,2.9-0.3,4.1-1
		c1.2-0.7,2.1-1.6,2.7-2.9s1-2.7,1-4.3c0-1.7-0.3-3.1-1-4.3c-0.6-1.2-1.5-2.2-2.7-2.9c-1.2-0.7-2.5-1-4.1-1c-1.5,0-2.9,0.3-4.1,1
		c-1.2,0.7-2.1,1.6-2.7,2.9c-0.6,1.2-0.9,2.7-0.9,4.3c0,1.6,0.3,3.1,0.9,4.3s1.5,2.2,2.7,2.9C143.9,430.1,145.3,430.5,146.8,430.5
		 M128.8,430.5c1.4,0,2.8-0.2,4-0.7c1.3-0.4,2.4-1.1,3.3-1.9c0.4-0.3,0.6-0.8,0.6-1.3c0-0.4-0.1-0.7-0.3-1c-0.2-0.3-0.5-0.4-0.8-0.4
		c-0.3,0-0.6,0.1-1.1,0.4c-1.1,0.8-2,1.3-2.9,1.6c-0.8,0.3-1.8,0.5-2.8,0.5c-2.4,0-4.2-0.8-5.4-2.3c-1.3-1.5-1.9-3.7-1.9-6.6
		c0-2.9,0.6-5.1,1.9-6.6s3.1-2.3,5.4-2.3c1.1,0,2,0.2,2.9,0.5c0.8,0.3,1.8,0.9,2.8,1.6c0.3,0.3,0.7,0.4,1.1,0.4
		c0.3,0,0.6-0.1,0.8-0.4c0.2-0.3,0.3-0.6,0.3-1c0-0.5-0.2-1-0.6-1.3c-0.9-0.8-2.1-1.5-3.3-1.9c-1.3-0.4-2.6-0.7-4-0.7
		c-2.2,0-4.1,0.5-5.7,1.4c-1.6,0.9-2.8,2.3-3.7,4c-0.9,1.8-1.3,3.8-1.3,6.2c0,2.4,0.4,4.5,1.3,6.2c0.9,1.8,2.1,3.1,3.7,4
		S126.6,430.5,128.8,430.5"/>
</g>
<line class="st1" x1="116.3" y1="375.9" x2="725.8" y2="375.9"/>
<g>
	<defs>
		<rect id="SVGID_3_" x="113" y="159.9" width="615.7" height="276.3"/>
	</defs>
	<clipPath id="SVGID_4_">
		<use xlink:href="#SVGID_3_"  style="overflow:visible;"/>
	</clipPath>
	<path class="st2" d="M723.2,270.6l5.3-6.2c-4.3-4.1-9.4-7.3-15.1-9.6c-5.7-2.3-11.7-3.4-17.8-3.4c-8.6,0-16.5,2.1-23.8,6.2
		c-7.2,4.1-13,9.7-17.2,16.7c-4.3,7-6.4,14.8-6.4,23.2c0,8.4,2.1,16.2,6.3,23.3c4.2,7.1,9.9,12.8,17.1,16.9
		c7.2,4.2,15.1,6.2,23.7,6.2c6.1,0,12-1.2,17.8-3.6c5.8-2.4,11-5.7,15.5-9.9l-5.5-5.9c-3.7,3.5-8,6.2-12.8,8.1
		c-4.8,2-9.7,2.9-14.7,2.9c-7,0-13.5-1.7-19.3-5.1c-5.9-3.4-10.5-8-13.9-13.9c-3.4-5.8-5.1-12.2-5.1-19.1c0-6.9,1.7-13.3,5.1-19.2
		c3.4-5.9,8.1-10.5,13.9-13.9c5.9-3.4,12.3-5.1,19.3-5.1c5.1,0,10.1,1,14.8,3C715.4,264.3,719.6,267,723.2,270.6 M467.9,305.6v-45.4
		h25c8.7,0,15.4,1.9,20,5.7c4.7,3.8,7,9.4,7,16.7c0,7.5-2.3,13.2-7,17.1c-4.7,4-11.4,5.9-20,5.9H467.9z M529.3,343.1l-21.9-31.4
		c6.8-2,12-5.5,15.6-10.5c3.6-5,5.5-11.3,5.5-18.9c0-9.6-3.1-17.1-9.3-22.3c-6.2-5.2-15-7.9-26.4-7.9h-34v91h9v-29.4h25
		c1.5,0,3.6-0.1,6.4-0.3l19.7,29.7H529.3z M188,270.6l5.3-6.2c-4.3-4.1-9.4-7.3-15.1-9.6c-5.7-2.3-11.7-3.4-17.8-3.4
		c-8.6,0-16.5,2.1-23.8,6.2c-7.2,4.1-13,9.7-17.2,16.7c-4.3,7-6.4,14.8-6.4,23.2c0,8.4,2.1,16.2,6.3,23.3
		c4.2,7.1,9.9,12.8,17.1,16.9c7.2,4.2,15.1,6.2,23.7,6.2c6.1,0,12-1.2,17.8-3.6c5.8-2.4,11-5.7,15.5-9.9l-5.5-5.9
		c-3.7,3.5-8,6.2-12.8,8.1c-4.8,2-9.7,2.9-14.7,2.9c-7,0-13.5-1.7-19.3-5.1c-5.9-3.4-10.5-8-13.9-13.9c-3.4-5.8-5.1-12.2-5.1-19.1
		c0-6.9,1.7-13.3,5.1-19.2c3.4-5.9,8.1-10.5,13.9-13.9c5.9-3.4,12.3-5.1,19.3-5.1c5.1,0,10.1,1,14.8,3
		C180.1,264.3,184.3,267,188,270.6"/>
</g>
<polygon class="st3" points="322.7,159.9 309.6,188.3 288.6,183.4 307.5,220.2 271.1,201.4 275.9,222.4 247.6,235.5 275.9,248.6 
	271.1,269.6 317.8,260.9 319.1,260.5 319.1,343.9 326.3,343.9 326.3,260.5 327.6,260.9 374.4,269.6 369.5,248.6 397.9,235.5 
	369.5,222.4 374.4,201.4 337.9,220.2 356.8,183.4 335.8,188.3 "/>
</svg>
